<svg width="2100" height="3200" viewBox="0 0 2100 3200" fill="none" xmlns="http://www.w3.org/2000/svg"> 
<g clip-path="url(#clip0_32754_2)">
<path d="M472.177 128.909C471.242 127.491 470.309 126.074 469.285 124.726C468.221 123.331 467.342 121.777 466.449 120.2C463.807 115.532 461.047 110.655 453.028 109.067C461.343 105.545 462.1 99.642 462.842 93.8531C463.235 90.7929 463.623 87.7647 465.121 85.1368C468.032 80.0253 469.854 74.3017 471.682 68.5625C472.776 65.1279 473.871 61.6878 475.202 58.3699C476.039 56.2646 478.629 53.5578 480.572 53.4275C488.794 52.9246 497.038 52.8677 505.266 53.2571C512.508 53.5478 519.78 54.1393 526.265 58.1493C527.95 59.216 529.914 59.7503 531.903 59.6832C541.001 58.9929 548.398 63.0375 555.775 67.0707C558.148 68.3679 560.519 69.664 562.943 70.801C565.354 71.9338 566.888 74.9614 567.824 78.5503L558.042 72.7358L556.518 74.41C557.367 75.2407 558.235 76.0542 559.102 76.8674C561.122 78.7628 563.141 80.6563 564.926 82.7609C566.811 84.9778 568.495 87.3701 570.343 89.9971C571.22 91.2428 572.134 92.5412 573.124 93.8987L583.404 90.4501C582.652 89.3422 581.871 88.3358 581.127 87.3764C579.615 85.4278 578.254 83.6735 577.587 81.6581L577.383 81.0275C573.205 68.122 573.168 68.0077 561.648 62.6105C560.418 62.0309 559.219 61.3634 558.021 60.6965C556.006 59.5755 553.995 58.4561 551.846 57.7583C550.32 57.2684 548.802 56.6774 547.284 56.0862C540.972 53.629 534.651 51.168 527.689 55.9438C524.741 49.7283 528.267 46.9112 531.873 45.9689C535.858 44.9162 540.988 44.415 544.495 46.0791C555.806 51.3904 566.784 57.3932 577.367 64.0541C585.954 69.5077 591.264 77.6581 593.794 88.0441C595.528 95.1246 598.319 101.96 601.103 108.777C601.965 110.888 602.827 112.997 603.656 115.112C603.872 115.72 604.772 116.057 605.863 116.467C606.427 116.679 607.042 116.91 607.64 117.207C608.661 119.409 609.707 121.71 610.783 124.075C613.617 130.303 616.656 136.984 619.963 143.523C620.974 145.482 622.498 147.155 624.025 148.832C624.889 149.78 625.754 150.73 626.527 151.733C626.689 151.944 626.854 152.155 627.019 152.368C628.249 153.949 629.532 155.6 630.173 157.367C632.624 164.255 634.945 171.212 636.937 178.23C639.667 188.164 640.155 188.696 650.624 187.693C651.551 187.603 652.477 187.683 653.991 189.377L643.711 193.287C643.892 195.31 643.957 197.379 644.023 199.445C644.293 207.975 644.561 216.456 652.925 221.468C652.925 223.034 652.824 224.539 652.727 225.979C652.529 228.917 652.349 231.587 653.085 233.969C656.306 244.373 659.815 254.692 663.324 265.011C664.958 269.816 666.592 274.62 668.196 279.433C669.746 284.071 671.223 288.733 672.754 293.563C673.486 295.874 674.23 298.222 675 300.626H669.83C671.157 306.541 672.476 312.364 673.794 318.181L674.323 320.515C671.546 314.853 669.43 308.882 667.295 302.857C662.705 289.904 658.027 276.705 646.51 265.799L648.502 278.962C646.713 274.147 645.128 269.24 643.541 264.324C637.83 246.636 632.083 228.837 616.626 214.881C614.963 221.818 617.829 226.384 620.578 230.765C621.583 232.367 622.573 233.944 623.32 235.603C626.219 242.119 629.107 248.646 630.293 255.974C628.795 253.116 627.217 250.29 625.64 247.464C622.09 241.103 618.54 234.744 615.899 228.024C610.091 213.277 600.04 201.969 589.082 191.362C587.726 190.051 586.433 188.671 585.139 187.289C580.664 182.511 576.171 177.715 568.97 175.693C565.666 174.764 562.991 171.626 560.299 168.468C558.982 166.923 557.66 165.372 556.259 164.074C554.035 161.983 551.492 160.264 548.728 158.981C553.662 164.831 557.49 171.286 561.311 177.729C563.593 181.577 565.872 185.42 568.382 189.127L566.34 190.52C565.577 189.517 564.776 188.535 563.974 187.552C562.181 185.353 560.385 183.151 559.008 180.706C553.739 171.242 546.298 163.773 538.408 156.646C538.323 156.571 538.221 156.502 538.119 156.435C537.922 156.303 537.727 156.173 537.661 155.994C534.255 146.367 526.774 146.604 518.881 146.854C518.349 146.87 517.815 146.887 517.28 146.901C511.941 147.034 506.576 146.514 501.219 145.994C499.309 145.808 497.4 145.623 495.494 145.468C486.18 144.706 479.595 139.453 474.356 132.124C473.602 131.071 472.889 129.989 472.177 128.909Z" fill="#EAB308"/>
<path d="M97.26 278.333L97.26 278.331C97.2865 274.31 97.3131 270.274 97.3131 266.22C104.83 264.253 109.044 268.143 113.308 272.079C115.542 274.141 117.79 276.216 120.533 277.468C118.776 278.414 116.948 279.218 115.064 279.874C105.85 282.28 104.605 286.621 111.289 293.568C112.121 294.333 112.995 295.049 113.909 295.713C113.23 299.242 112.482 302.784 111.733 306.333C110.018 314.45 108.296 322.605 107.374 330.731C106.454 338.842 106.332 347.054 106.209 355.261C106.155 358.871 106.101 362.48 105.98 366.079L102.533 366.36C102.223 364.569 101.876 362.78 101.528 360.992C100.691 356.684 99.8542 352.376 99.5445 348.034C98.5284 333.768 97.7713 319.473 97.3828 305.177C97.1419 296.266 97.2007 287.335 97.26 278.333Z" fill="#EAB308"/>
<path d="M60.8916 803.326C55.0949 804.723 49.6669 806.03 43.8398 805.999C38.361 805.969 35.2829 804.917 33.201 799.633C28.9926 788.788 24.3965 778.097 19.8072 767.421L19.1055 765.789C17.477 762.026 15.6819 758.307 13.8128 754.436L13.8122 754.434C13.0176 752.788 12.2095 751.114 11.3953 749.398L16.376 745.237C7.56743 732.461 6.83462 718.053 6.06019 702.826C5.80645 697.837 5.54823 692.76 5 687.623C12.7401 696.616 22.1537 729.809 20.1614 739.914C20.8045 740.162 21.4739 740.5 22.1549 740.845C23.731 741.641 25.3689 742.469 26.8854 742.28C32.3742 741.608 34.755 744.455 36.3588 748.997C39.0484 756.536 42.2062 763.704 48.5417 769.137C49.8186 770.226 50.6429 771.82 51.4748 773.428C52.0447 774.529 52.6182 775.638 53.3431 776.596C55.3492 779.231 57.4441 781.8 59.5401 784.369L59.5424 784.372C61.1612 786.357 62.7807 788.342 64.3605 790.36C65.9619 792.395 67.5008 794.484 69.3213 796.955C70.2187 798.173 71.1845 799.484 72.26 800.927C68.2089 801.563 64.481 802.461 60.8942 803.325L60.8916 803.326Z" fill="#EAB308"/>
<path d="M53.0642 710.07C54.1201 715.102 55.1727 720.141 56.222 725.187C60.1468 719.072 57.766 714.32 53.0642 710.07Z" fill="#EAB308"/>
<path d="M76.3147 794.42C80.0204 799.603 82.0625 800.305 87.6011 797.097C90.0437 795.509 92.4012 793.793 94.6638 791.954C87.8855 777.056 81.2386 762.456 74.6414 747.965L73.5617 745.593C70.2444 738.306 66.9386 731.045 63.6337 723.784C63.3493 723.898 63.061 724.005 62.7737 724.111C62.6783 724.146 62.5831 724.181 62.4882 724.216C62.4182 724.243 62.3485 724.269 62.279 724.295C62.0855 727.956 61.9149 731.619 61.7442 735.281L61.7441 735.283C61.3171 744.447 60.8902 753.61 60.1074 762.741C59.6192 768.415 60.5855 773.348 63.823 777.779C65.9828 780.805 68.2521 783.766 70.524 786.732C72.4748 789.278 74.4279 791.827 76.3147 794.42Z" fill="#EAB308"/>
<path d="M168.458 389.318C169.012 386.415 169.489 383.498 169.966 380.582C171.204 373.015 172.441 365.452 175.023 358.15C177.662 350.667 181.65 343.451 185.621 336.267C187.151 333.499 188.678 330.736 190.124 327.964C190.463 327.312 190.065 326.541 189.128 325.959C188.202 325.445 187.307 324.876 186.449 324.255C184.876 323.096 183.412 321.794 182.075 320.365C178.42 316.285 179.894 313.829 186.528 312.836C189.226 312.475 191.945 312.304 194.667 312.325C195.968 312.316 197.269 312.236 198.562 312.084C200.962 311.824 201.55 310.15 199.558 309.077C197.13 307.713 194.926 306.197 192.731 304.686C187.117 300.824 181.551 296.996 172.393 295.814C171.237 295.663 170.032 295.543 168.757 295.483C168.237 295.391 167.701 295.434 167.202 295.61C166.704 295.786 166.258 296.087 165.908 296.485C165.841 296.599 165.797 296.725 165.778 296.856C165.711 297.311 165.645 297.781 165.579 298.257C165.499 298.832 165.417 299.414 165.33 299.984C165.039 302.029 164.741 304.071 164.443 306.108C164.048 308.815 163.653 311.516 163.278 314.21C162.441 320.094 161.684 325.959 161.186 331.864C160.041 345.338 159.523 358.932 159.463 372.495C159.463 376.538 160.304 380.658 161.145 384.782C161.395 386.006 161.645 387.232 161.874 388.455C161.875 388.481 161.876 388.507 161.876 388.533C161.877 388.571 161.876 388.608 161.874 388.646C162.003 389.378 162.87 390.039 164.005 390.38C164.365 390.495 164.736 390.573 165.111 390.611H165.171C166.874 390.811 168.289 390.23 168.458 389.318Z" fill="#EAB308"/>
<path d="M316.062 2252.78C317.064 2253.36 317.992 2254.05 318.826 2254.85C319.666 2255.66 320.445 2256.52 321.156 2257.44C321.888 2258.37 322.569 2259.33 323.218 2260.29C323.868 2261.25 324.559 2262.19 325.28 2263.1C330.931 2270.4 335.911 2278.22 341.479 2285.58C344.521 2289.59 348.192 2293.13 351.677 2296.97L357.545 2292.51C366.103 2311.86 382.498 2324.23 395.5 2339.42C414.112 2361.16 433.085 2382.6 450.563 2405.32C451.151 2406.08 452.079 2406.6 454.131 2408.3C453.502 2405.28 453.553 2403.38 452.738 2401.98C441.891 2383.34 431.219 2364.63 419.835 2346.37C415.896 2340.04 410.142 2334.86 405.162 2329.19C402.512 2326.17 399.646 2323.28 400.553 2318.84L400.388 2318.66L400.635 2318.42C400.635 2318.56 400.574 2318.7 400.553 2318.84C406.214 2325.12 412.638 2330.89 417.36 2337.83C430.837 2357.66 445.273 2376.9 455.419 2398.94C459.255 2407.22 464.988 2414.69 469.69 2422.62C474.753 2431.14 478.878 2440.34 484.735 2448.25C494.499 2461.45 505.357 2473.84 516.071 2487.04C513.946 2488.38 509.75 2488.87 511.554 2493.08C518.999 2499.1 520.278 2508.48 523.051 2516.62C527.753 2530.4 534.816 2542.85 541.612 2555.5C541.797 2555.83 542.746 2555.75 544.571 2556.08L528.805 2515.98L530.599 2515.12C534.404 2522.81 538.848 2530.27 541.942 2538.26C550.418 2560.41 558.893 2582.54 570.669 2603.19C575.433 2611.54 580.877 2619.5 585.455 2627.94C592.477 2640.88 599.056 2654.05 605.696 2667.18C606.673 2669.3 607.072 2671.65 606.851 2673.98C596.787 2656.01 587.26 2637.86 574.082 2621.75C577.722 2634.51 581.496 2647.22 584.991 2660.07C591.25 2682.96 597.891 2705.76 603.376 2728.84C612.914 2768.91 621.71 2809.15 630.804 2849.33C633.836 2862.73 637.249 2876.04 639.724 2889.54C643.848 2911.81 647.591 2934.14 650.953 2956.56C653.417 2972.8 655.139 2989.16 657.047 3005.5C657.459 3008.74 657.036 3012.03 655.82 3015.05L642.044 2924.13H639.528C636.95 2941.83 642.425 2958.91 643.652 2976.3C644.683 2990.8 646.364 3005.13 647.777 3019.55C649.159 3034.27 650.293 3049.02 651.901 3063.72C653.479 3077.75 654.933 3091.68 652.53 3105.84C646.859 3085.9 646.612 3065.28 641.6 3045.08C641.6 3048.08 641.539 3051.08 641.6 3054.05C641.693 3057.5 641.838 3060.95 642.085 3064.41C643.58 3085.32 645.395 3106.21 646.56 3127.14C647.457 3143.22 647.519 3159.35 648.045 3175.45C648.138 3178.31 648.684 3181.16 649.169 3185.24C656.871 3180.86 663.429 3177.81 670.658 3181.76C673.06 3183.09 675.298 3184.69 677.669 3186.05C684.743 3190.1 691.724 3194.33 699.014 3197.98C702.143 3199.41 705.558 3200.1 708.995 3199.99C715.512 3199.88 718.409 3195.85 718.698 3189.27C718.949 3183.51 719.715 3177.78 720.987 3172.16C722.4 3165.95 725.947 3161.44 733.495 3162.25C735.351 3156.39 736.124 3155.94 735.186 3140.85C735.052 3138.78 736.485 3137.75 738.393 3138.64C749.549 3143.71 758.211 3152.5 768.12 3159.48C769.058 3160.15 770.688 3159.8 771.915 3159.9C774.162 3155.01 775.627 3150.05 778.473 3146.1C782.195 3140.93 787.815 3144.03 793.661 3145.25C796.27 3132.7 799.126 3120.8 801.116 3108.75C802.632 3099.57 804.529 3091.04 813.49 3085.81C813.665 3085.7 813.796 3085.53 813.861 3085.33C816.872 3076.01 824.049 3074.6 831.926 3074.77C840.041 3074.93 845.403 3072.14 848.208 3063.73C851.188 3054.79 853.92 3046.2 852.168 3036.56C851.456 3032.63 852.168 3028.28 852.931 3024.26C854.931 3013.67 857.261 3011.43 868.057 3011.52C874.852 3011.52 880.018 3009.6 884.153 3004.27C889.598 2997.23 896.681 2994.33 905.745 2994.72C914.448 2995.1 920.903 2988.81 923.089 2980.3C926.326 2967.64 929.224 2954.82 933.596 2942.52C939.783 2925.21 952.156 2915.76 971.201 2916.45C975.656 2916.6 980.151 2916.69 984.606 2916.45C994.845 2915.79 1003.01 2908.73 1004.2 2898.56C1005.09 2890.68 1004.46 2882.62 1004.55 2874.66C1004.55 2874.3 1004.55 2873.94 1004.55 2873.62C1002.74 2856.81 1004.67 2849.29 1022.84 2850.95C1029.03 2851.52 1033.22 2848.08 1037.12 2844.16C1041.96 2839.3 1046.7 2834.89 1053.27 2831.84C1062.25 2827.7 1060.4 2817.96 1060.49 2809.92C1060.57 2801.87 1059.61 2794.08 1059.96 2786.2C1060.47 2775.12 1065.69 2771.26 1076.22 2773.92C1082.19 2775.44 1087.95 2777.83 1093.75 2779.9C1103.83 2783.5 1109.84 2781.09 1112.96 2771.04C1114.77 2765.48 1115.57 2759.64 1115.33 2753.79C1114.67 2742.82 1112.6 2731.94 1111.54 2720.98C1110.85 2713.83 1110.07 2706.49 1110.83 2699.42C1111.86 2690.1 1118.71 2686.19 1127.13 2690.1C1133.89 2693.28 1140.06 2697.8 1146.36 2701.92C1151.8 2705.49 1156.88 2709.68 1162.48 2712.97C1166.06 2714.97 1169.93 2716.39 1173.95 2717.18C1181.07 2718.73 1185.03 2716.36 1185.29 2709.25C1185.54 2701.44 1184.33 2693.54 1183.3 2685.74C1182.47 2679.29 1180.4 2672.94 1180.08 2666.48C1180.13 2662.83 1181.53 2659.32 1184 2656.64C1184.98 2655.6 1189.83 2657.13 1192.24 2658.62C1201.29 2664.21 1209.99 2670.37 1218.95 2676.11C1221.89 2677.92 1225 2679.43 1228.23 2680.61C1236.76 2683.94 1239.02 2683.04 1243.56 2675.05C1244.07 2674.16 1244.47 2672.98 1245.27 2672.52C1255.11 2666.75 1255.47 2657.04 1255.87 2647.29C1256.29 2636.74 1256.71 2626.19 1257.46 2615.66C1257.5 2615.25 1257.57 2614.84 1257.67 2614.44C1261.33 2600.63 1265.92 2595.79 1278 2597.59C1286.45 2598.87 1294.68 2601.52 1303 2603.56C1314.78 2606.45 1322.94 2602.32 1327.6 2591.06C1332.15 2580.07 1333.02 2568.36 1334.26 2556.71C1334.65 2552.96 1335.29 2549.23 1335.96 2545.51C1338.47 2530.83 1347.19 2528.35 1360.23 2530.84C1366.28 2531.99 1372.16 2534.08 1378.12 2535.71C1381.43 2536.61 1384.73 2537.61 1388.09 2538.28C1394.81 2539.61 1400.46 2536.43 1402.2 2529.72C1403.19 2525.36 1403.71 2520.9 1403.73 2516.43C1404.01 2508.15 1404.01 2499.86 1403.98 2491.58C1403.88 2489.05 1404.37 2486.53 1405.42 2484.23C1406.46 2481.92 1408.03 2479.9 1410 2478.32C1423.34 2481.5 1434.25 2491.57 1449.81 2490.31C1448.59 2488.07 1448.22 2486.74 1447.36 2485.92C1443.06 2481.89 1442.69 2477.93 1446.66 2473.32C1448.26 2471.57 1449.23 2469.33 1449.44 2466.97C1449.38 2455.97 1455.21 2450.74 1466.1 2449.26C1473.89 2457.95 1485.26 2458.36 1496.01 2459.37C1500.93 2459.83 1507.06 2459.51 1509.99 2452.99C1510.92 2450.92 1513.78 2449.17 1516.17 2448.37C1527.27 2444.61 1533.16 2436.85 1533.45 2425.37C1533.7 2415.01 1532.84 2404.75 1532.73 2394.43C1532.64 2385.17 1531.95 2375.79 1533.24 2366.66C1535.04 2354.01 1542.52 2352 1555.44 2358.49C1558.53 2360.05 1561.63 2361.5 1565.89 2363.51C1572.26 2378.11 1585.82 2384.37 1601.5 2379.61C1604.32 2373.54 1608.14 2368.32 1609.02 2362.66C1610.05 2355.71 1608.86 2348.35 1608.34 2341.21C1607.67 2331.96 1606.59 2322.75 1605.99 2313.5C1605.9 2311.08 1606.38 2308.67 1607.39 2306.47C1609.54 2301.61 1613.72 2299.99 1618.31 2302.63C1624.49 2306.21 1630.34 2310.49 1636.39 2314.36C1641.25 2317.47 1646.2 2320.44 1652.05 2324.05C1653.41 2320.65 1654.26 2318.24 1655.34 2315.91C1656.77 2312.8 1657.57 2308.49 1660.04 2306.94C1669.71 2300.86 1668.69 2291.4 1667.36 2282.88C1665.55 2271.41 1668.11 2261.02 1671.18 2250.4C1671.94 2247.85 1672.18 2245.18 1671.92 2242.54C1670.89 2233.79 1672.42 2231.83 1681.6 2231.15C1682.92 2231.04 1684.23 2230.92 1686.17 2230.74C1686.17 2226.73 1686.17 2223.03 1686.17 2219.35C1686.27 2212.1 1690.58 2208.71 1696.82 2212.27C1703.58 2216.13 1709.44 2221.59 1715.66 2226.47C1717.72 2228.04 1719.63 2229.75 1723.42 2230.4C1722.56 2226.55 1721.69 2222.7 1720.83 2218.84C1720.07 2216.21 1719.47 2213.53 1719.04 2210.82C1718.01 2200.89 1721.4 2198.08 1730.86 2200.84C1735.11 2202.09 1739.31 2203.57 1743.33 2204.88L1752.89 2198.05C1751.86 2186.73 1750.83 2174.41 1749.52 2162.15C1748.08 2149.19 1745 2136.43 1748.24 2123.18C1751.01 2111.86 1755.82 2107.86 1767.32 2110.18C1773.66 2111.63 1779.91 2113.44 1786.04 2115.6C1791.34 2117.33 1796.56 2117.83 1801.87 2121.35C1814.61 2129.82 1829.05 2121.18 1830.09 2108.92C1831.02 2099 1831.14 2089.02 1830.45 2079.08C1829.68 2069.19 1826.82 2059.49 1825.75 2049.6C1824.81 2041.03 1824.57 2032.41 1825.05 2023.81C1825.57 2015.06 1830.31 2012.07 1838.39 2015.67C1847.83 2019.81 1857.02 2024.65 1864.87 2031.8C1868.54 2035.15 1873.5 2037.06 1879.12 2040.36C1879.49 2036.42 1880.09 2033.85 1879.92 2031.36C1879.15 2020.39 1879.07 2020.4 1887.51 2013.36C1885.57 2001.24 1883.57 1988.71 1881.56 1976.18C1881.49 1975.85 1881.35 1975.52 1881.29 1975.14C1878.19 1957.54 1883.47 1952.8 1900.62 1958.01C1906.75 1959.88 1912.69 1963.19 1919.38 1959.05C1920.79 1958.16 1923.76 1959.76 1925.88 1960.2C1937.75 1951.2 1936.01 1938.6 1935.5 1926.22C1935.16 1917.93 1934.77 1909.65 1935.5 1901.51C1936.45 1891.15 1941.27 1887.97 1951.77 1890C1957.8 1891.18 1963.64 1893.31 1969.66 1894.65C1974.63 1895.75 1979.16 1896.91 1983.53 1900.21C1987.1 1902.9 1992.45 1904.01 1997.08 1904.19C1999.87 1904.29 2003.91 1901.95 2005.33 1899.51C2007.55 1895.65 2008.77 1891.3 2008.9 1886.84C2009.34 1867.78 2006.33 1849.12 2001.49 1830.69C1998.26 1818.41 1996.69 1804.33 2005.95 1794.51C2006.27 1794.21 2006.65 1793.98 2007.06 1793.85C2007.48 1793.72 2007.92 1793.68 2008.35 1793.75C2021.52 1796.76 2032.07 1805.07 2043.12 1812.39C2047.7 1815.42 2051.92 1819.05 2056.65 1821.8C2059.26 1823.32 2062.58 1823.58 2067.21 1824.91C2064.56 1817.19 2062.62 1811.53 2060.46 1805.23L2065.38 1799.49L2053.53 1783.48C2052.88 1775.2 2052.26 1764.84 2051.18 1754.6C2050.63 1749.42 2051.84 1745.12 2055.3 1741.45C2059.68 1740.41 2060.38 1743.52 2061.75 1746.46C2063.52 1750.29 2065.96 1753.89 2071.8 1750.53C2071.6 1748.99 2071.54 1747.44 2071.61 1745.89C2072.39 1739.67 2075.6 1736.74 2081.84 1737.01C2085.97 1737.19 2089.98 1737.97 2094.04 1738.49C2099.31 1739.19 2100.97 1737.32 2099.47 1732.12C2098.24 1727.85 2096.8 1723.63 2095.28 1718.84H2086.98C2087.29 1713.95 2087.22 1709.59 2087.89 1705.37C2089.02 1698.23 2090.73 1691.18 2091.97 1684.07C2093.28 1676.54 2091.24 1672.28 2084.44 1668.97C2080.13 1666.9 2075.51 1665.42 2071.04 1663.59C2060.58 1659.33 2050.25 1654.7 2039.64 1650.85C2033.23 1648.5 2026.59 1646.85 2019.84 1645.91C2014.13 1645.13 2008.24 1646.17 2003.89 1640.8C2002.86 1639.57 2000.13 1639.76 1997.28 1641.02L2036.14 1667.34C2030.02 1669.61 2026.08 1667.7 2022.36 1665.41C2010.1 1657.88 1998.02 1650.03 1985.67 1642.62C1970.36 1633.48 1954.98 1624.42 1939.38 1615.77C1922.88 1606.6 1906.12 1597.88 1889.38 1589.13C1858.07 1572.77 1826.77 1556.35 1795.28 1540.33C1783.96 1534.55 1771.77 1530.7 1759.19 1528.94C1736.81 1525.78 1714.48 1521.5 1693.93 1511.45C1684.74 1506.95 1675.49 1501.89 1667.7 1495.36C1654.43 1484.25 1639.76 1475.49 1625.19 1466.45C1602.16 1452.15 1578.21 1439.18 1557.37 1421.73C1540.36 1407.48 1523.34 1393.35 1508.71 1376.16C1494.63 1359.66 1480.07 1342.67 1460.94 1331.08C1460.59 1330.87 1460.26 1330.63 1459.97 1330.35C1453.78 1324.51 1448.54 1316.96 1438.75 1318.96C1438.54 1318.96 1438.16 1318.15 1437.83 1317.59H1437.59L1437.25 1317.19C1433.92 1316.15 1430.13 1315.76 1427.6 1313.74C1416.65 1304.96 1405.71 1296.07 1395.54 1286.4C1374.73 1266.58 1359.58 1242.26 1344.17 1218.32C1331.19 1198.16 1319.57 1177.09 1307.49 1156.34C1302.86 1148.38 1295.79 1143.07 1288.29 1137.77C1295.85 1159.07 1305.71 1179.48 1317.67 1198.63C1329.88 1218.1 1342.64 1237.22 1361.42 1254.01C1355.91 1253.83 1353.59 1251.4 1351.61 1249.23C1342.84 1239.57 1334.31 1229.7 1325.68 1219.94C1322.18 1215.97 1320.46 1210.23 1313.68 1209.58C1311.85 1209.39 1310.19 1205.72 1308.76 1203.45C1290.93 1174.81 1274.74 1145.27 1261.33 1114.32C1254.77 1099.27 1249.22 1083.77 1243.53 1068.36C1242.1 1064.49 1241.36 1060.4 1241.33 1056.27C1241.33 1047.47 1237.43 1040.52 1232.78 1033.49C1228.13 1026.46 1223.4 1019.09 1218.8 1011.83C1216.93 1011.59 1215.09 1011.15 1213.31 1010.51C1210.82 1009.53 1208.27 1008.75 1205.66 1008.17C1205.66 1008.26 1205.54 1008.17 1205.45 1008.01V1008.06C1184.61 984.128 1173.32 955.927 1167.4 925.147C1164.48 909.974 1160.43 895.019 1156.77 879.443L1148.26 878.635L1136.5 829.369C1128.04 828.002 1121.68 831.668 1115.23 834.713C1110.73 836.836 1106.78 838.586 1102.02 834.495C1100.18 832.921 1096.05 833.201 1093.18 833.77C1078.08 836.784 1062.95 839.787 1048.03 843.568C1039.78 845.639 1031.91 849.295 1023.85 852.174C1022.74 852.578 1021.5 852.64 1019.62 851.138C1024.97 848.477 1030.15 845.401 1035.7 843.236C1059.16 834.102 1083.31 828.157 1108.61 826.728C1117.66 826.21 1126.57 822.937 1136 820.824C1136 814.61 1136.14 809.546 1136 804.471C1135.45 788.004 1137.03 771.444 1132.41 755.174C1130.76 749.374 1131.29 742.901 1131.25 736.729C1131.25 734.854 1132.49 732.907 1133.39 731.115C1134.74 728.423 1136.29 725.844 1138.44 721.981C1121.62 722.695 1109.15 732.41 1094.72 736.055C1080.29 739.701 1066.6 746.122 1052.22 750.389C1075.23 737.961 1100.68 731.115 1123.88 719.557C1122.56 714.379 1121.4 709.833 1119.97 704.281L1088.52 701.247C1088.52 700.791 1088.61 700.346 1088.66 699.869C1101.89 698.834 1115.22 698.378 1128.3 696.369C1135.93 695.197 1143.27 692.552 1149.9 688.581C1154.83 685.565 1160.41 683.788 1166.17 683.402C1181.86 682.149 1197.58 680.741 1213.3 680.347C1224.28 680.078 1232.35 673.263 1243.64 669.928C1235.2 664.253 1226.86 668.095 1219.44 665.672C1225.32 661.446 1231.81 660.846 1238.62 661.364C1249.24 662.161 1259.96 663.155 1269.75 657.335C1270.9 656.662 1271.96 655.812 1273.99 654.404L1263.25 652.643L1262.94 650.572C1278.25 642.432 1296.81 644.265 1312.83 635.586C1312.72 634.281 1312.53 632.707 1312.48 631.133C1312.36 624.68 1315.11 621.532 1321.37 621.201C1324.12 621.028 1326.88 621.091 1329.62 621.387C1334.89 622 1340.22 621.738 1345.41 620.61C1346 619.126 1346.72 617.698 1347.56 616.343C1348.33 615.19 1349.18 614.099 1350.12 613.081C1350.95 612.159 1351.8 611.269 1352.68 610.399L1353.3 610.575L1352.77 610.378C1354.02 608.793 1354.83 606.681 1356.18 606.235C1363.91 603.584 1371.65 600.415 1379.62 599.213C1387.09 598.153 1394.17 595.246 1400.24 590.752C1418.01 577.848 1436.01 565.306 1454.03 552.754C1462.99 546.54 1472.19 540.647 1482.51 533.791C1480.37 530.684 1478.38 527.763 1476.32 524.915C1463.15 507.174 1445.91 493.265 1431.42 476.798C1428.32 473.277 1426.47 468.513 1423.08 465.406C1418.12 460.787 1412.26 457.121 1406.85 452.978C1395.68 444.413 1384.47 435.889 1373.42 427.159C1363.72 419.397 1353.28 412.596 1342.27 406.85C1325.85 398.347 1310.16 388.322 1293.44 380.482C1276.42 372.528 1258.52 366.428 1241 359.52C1234.62 357.013 1228 354.994 1221.91 351.928C1205.22 343.55 1187.26 339.138 1169.6 333.566C1150.84 327.663 1131.78 324.1 1112.54 320.651C1099.78 318.373 1087.51 313.485 1074.78 310.999C1062.04 308.513 1049 307.581 1036.13 305.966C1034.43 305.748 1032.74 305.458 1031.05 305.168C1019.9 303.304 1008.83 302.237 997.392 303.097C977.935 304.505 959.24 299.462 940.886 293.61C938.288 292.792 935.658 292.036 933.008 291.363C932.41 291.218 931.688 291.611 930.74 291.819C930.214 293.227 929.636 294.791 928.76 297.163C924.563 292.606 920.614 288.308 916.654 284.03C916.067 284.362 915.489 284.693 914.902 285.066L918.387 294.915C910.437 293.88 908.189 287.666 904.137 283.419L900.012 286.816C897.682 281.182 895.465 275.818 893.268 270.442C890.598 263.897 889.288 256.647 881.4 253.395C878.987 252.36 877.997 248.331 875.915 246.084C870.594 240.367 864.85 235.033 859.633 229.233C857.164 226.385 855.084 223.219 853.446 219.819C851.178 215.252 849.868 210.747 843.341 209.68C840.062 209.142 837.453 204.502 833.772 201.964C835.896 205.776 838.01 209.608 840.835 214.703C833.855 213.605 830.648 209.742 827.967 205.506C818.254 190.168 808.314 174.954 799.198 159.264C789.918 143.222 776.627 131.187 761.964 118.873C760.995 121.721 760.345 123.658 759.448 126.32C755.107 120.271 751.467 114.927 747.497 109.749C745.208 106.818 742.826 103.949 738.032 105.358C736.392 105.845 733.639 104.26 732.051 102.852C724.627 96.2959 717.409 89.5123 710.16 82.7287C705.376 78.265 700.88 73.3249 693.064 75.0544C691.27 68.4469 694.662 59.9545 684.753 57.6657C686.001 60.7727 687.331 63.9936 689.218 68.6437C679.732 67.1316 676.844 59.5299 671.214 55.6772C665.337 51.6381 659.872 46.9466 654.335 42.5864L649.365 46.8741C643.972 42.4725 641.188 33.7212 633.197 38.4956C619.627 27.3415 606.037 18.6833 589.889 14.2921C581.991 12.138 574.422 8.81349 566.73 5.91363C560.038 3.39697 554.47 1.15994 546.716 6.08969C537.436 12.0033 526.093 14.9342 515.4 18.4037C507.574 20.9514 499.387 22.0078 491.684 15.8767L480.961 22.391C498.098 26.7615 513.689 27.1551 529.259 27.7972L529.475 29.9824C527.145 30.4692 524.794 31.5048 522.495 31.3702C509.843 30.666 497.18 29.941 484.58 28.6982C477.919 28.0457 472.815 27.7454 470.371 36.1653C468.597 42.2654 461.235 43.2596 457.162 38.0295C452.006 31.3909 446.129 31.2874 438.375 31.0388C421.32 30.4692 404.172 28.5118 387.849 22.826C384.895 21.8569 382.225 20.1707 380.075 17.917C371.558 8.17137 359.586 5.21974 348.11 0C348.409 1.56385 348.316 2.40274 348.677 2.76522C360.525 14.3336 374.806 22.5567 389.283 30.3138C391.799 31.6602 395.645 30.5106 398.687 30.5106V42.9386C381.817 39.2723 366.783 29.4232 351.09 20.4233C355.029 27.1965 362.277 30.6349 367.278 36.2275C371.991 41.5197 379.961 43.6739 382.982 50.5507L381.59 52.912C378.868 52.187 375.703 52.0938 373.527 50.5714C368.505 46.9656 363.708 43.0539 359.163 38.858C355.462 35.5439 352.874 30.4485 346.419 32.7994C345.552 33.0998 343.944 31.7638 342.861 30.987C332.003 22.9606 319.506 18.238 307.163 13.2979C304.153 12.0965 300.698 12.024 296.852 11.3198C296.44 15.5246 296.12 18.7455 295.687 23.0435C293.501 21.925 291.336 21.5832 290.964 20.5475C287.067 9.66273 278.519 5.28188 268.001 4.15301C255.813 2.85843 243.563 1.92633 231.324 1.31529C226.965 1.24034 222.619 1.82692 218.435 3.0552C214.939 3.95623 212.444 4.09087 209.051 1.87455C206.917 0.466047 202.679 1.87455 199.483 2.58916C193.677 3.83195 188.666 7.00108 181.953 2.94128C178.623 0.942453 171.91 4.2255 166.858 5.60293C164.362 6.27611 162.269 8.85491 159.815 9.17597C152.69 10.1081 148.194 13.94 144.575 19.9158C140.902 25.746 136.887 31.3519 132.552 36.7039C130.835 38.7365 128.775 40.4506 126.468 41.7683C120.838 45.2584 117.57 49.7532 119.127 56.7232C113.084 64.3975 104.144 61.2594 96.4416 62.6783C92.0903 63.4861 87.5327 63.0925 83.0369 63.3411C72.4782 63.89 70.7562 62.3779 69.9519 51.6381C57.0215 70.5286 44.5139 103.898 35.1306 145.386L41.7195 136.459C40.9462 141.275 40.3997 144.641 39.5439 149.922L56.8153 147.292C58.8776 154.79 50.9791 152.967 48.7106 155.681C46.4937 154.573 43.9365 152.242 42.4413 152.802C40.3791 153.568 37.8116 156.499 37.7806 158.539C37.6053 170.584 37.4403 182.712 42.8125 194C44.9882 198.578 47.4939 202.834 46.0503 208.624C45.3388 211.451 47.5351 215.117 48.7519 218.276C50.0408 221.642 51.7318 224.863 53.2579 228.146L51.4843 229.886L39.5026 221.953C42.3485 233.656 49.6283 239.766 58.6816 243.93C64.7034 246.705 70.3953 248.807 75.2416 254.286C78.0591 257.531 81.6579 259.997 85.6943 261.447C89.7307 262.898 94.07 263.285 98.2977 262.571C100.082 262.271 101.907 259.868 102.979 257.994C104.68 255.073 105.763 251.78 108.599 248.528C108.733 250.858 109.269 253.25 108.918 255.498C107.887 262.168 110.785 265.854 116.92 267.781C119.834 268.8 122.656 270.068 125.355 271.571C129.943 273.943 132.913 277.019 131.851 283.015C131.005 287.728 132.954 291.808 138.285 294.501C139.821 291.725 142.327 289.405 140.564 285.625C139.306 282.943 136.718 280.447 139.533 277.247C140.244 277.247 141.11 276.967 141.533 277.247C151.968 285.025 162.341 292.885 172.745 300.705C177.901 304.599 182.964 308.762 188.46 312.159C195.956 316.83 203.834 320.558 209.99 327.507C215.135 333.318 222.054 337.46 228.179 342.276C228.659 342.78 229.269 343.139 229.942 343.312C245.254 344.068 253.308 356.516 264.103 364.553C274.677 372.215 282.073 383.518 284.881 396.306C287.417 406.901 293.553 416.616 296.12 427.2C301.379 448.949 306.143 470.802 309.525 492.882C311.731 507.381 311.123 522.347 311.7 537.105C311.634 538.501 311.437 539.888 311.113 541.247C307.772 541.413 306.988 539.497 306.596 537.426C306.448 537.878 306.203 538.291 305.879 538.638C305.555 538.985 305.159 539.257 304.72 539.435C304.34 539.535 303.948 539.584 303.555 539.58C302.812 539.58 302.08 539.58 301.338 539.497H301.193C301.544 544.531 301.822 549.584 302.224 554.597C303.204 566.59 304.173 578.583 304.936 590.597C305.235 595.381 305.112 600.197 304.936 605.003C304.41 622.547 304.214 640.112 303.091 657.625C301.925 675.79 299.791 693.873 298.151 712.038C297.471 719.537 297.327 727.087 296.275 734.533C295.77 738.976 294.393 743.274 292.222 747.178C288.191 753.755 283.169 759.71 293.79 767.892H273.507L271.589 762.838C267.661 761.315 263.794 760.994 261.969 758.892C254.318 750.068 245.657 750.689 235.139 754.832C241.192 762.506 250.74 762.185 257.607 767.374C256.968 769.052 256.298 770.854 255.483 773.018C258.412 774.81 261.299 776.55 264.763 778.642C261.979 781.884 259.144 780.465 256.834 778.818C247.636 772.262 238.49 765.634 229.55 758.757C225.673 755.754 222.332 752.129 216.238 755.153C214.238 764.919 222.879 771.278 226.271 781.48C213.97 775.348 211.444 765.396 209.34 753.714C203.102 764.37 192.399 757.608 183.118 762.827L196.802 764.837C188.181 767.187 181.469 768.72 174.942 770.854C161.991 775.11 151.287 782.246 143.894 794.322C142.007 797.429 137.646 799.842 133.985 800.681L133.078 800.857C132.634 800.95 132.191 801.002 131.737 801.064H131.552C131.088 801.116 130.613 801.147 130.139 801.188H129.964C127.004 801.354 123.952 801.188 120.941 801.074C121.009 801.181 121.065 801.296 121.106 801.416C121.214 801.7 121.214 802.013 121.106 802.296C121.112 802.324 121.112 802.352 121.106 802.379L121.034 802.441L120.663 802.742L120.56 802.814H120.436L119.704 802.928H119.24C119.337 803.825 119.106 804.727 118.59 805.466C118.558 805.516 118.524 805.564 118.487 805.611C118.298 805.848 118.084 806.063 117.848 806.253C117.196 806.735 116.457 807.087 115.672 807.288C109.176 809.194 102.618 810.913 96.0807 812.757C93.8226 813.388 91.6056 814.165 89.1516 814.952C89.5331 817.852 89.8527 820.317 90.1827 823.124C88.4401 823.124 87.0893 823.528 86.5943 823.072C81.6965 818.753 77.1286 819.82 71.5089 822.264C65.4046 824.926 58.5167 825.754 51.9174 827.277C49.618 827.805 47.2258 827.908 44.9264 828.405C38.9561 829.69 32.9756 830.974 27.0569 832.486C24.5203 833.128 21.4372 833.677 19.8389 835.417C16.23 839.28 12.621 839.404 7.79534 838.358C5.71401 837.936 3.60499 837.666 1.48483 837.55C1.44059 838.138 1.34397 838.72 1.19611 839.29C0.907395 840.471 0.55681 841.641 0.216536 842.812L0 843.547C0.661591 844.103 1.23221 844.76 1.69105 845.494C3.60896 848.673 4.67102 852.35 6.23834 855.757C7.09418 857.611 7.98095 860.573 9.33173 860.936C19.7565 863.421 19.2203 873.664 23.3448 880.468C27.2528 886.9 30.0575 894.004 33.9345 900.467C35.2647 902.683 38.3477 903.853 41.7711 906.318C41.8433 907.427 41.9979 910.078 42.1732 912.874C42.9466 913.454 43.8127 914.635 44.5242 914.542C48.6487 914.044 50.9585 916.416 53.031 919.285C61.146 930.501 69.2198 941.759 77.7782 953.658L84.3155 947.911C82.8101 945.197 81.5212 942.846 80.191 940.35C81.2222 940.226 82.0161 939.894 82.2533 940.122C83.3669 941.427 84.0578 943.685 85.3467 944.12C97.3697 948.097 103.556 959.054 112.682 966.449C119.446 971.928 127.675 975.563 134.748 980.72C136.049 981.601 137.43 982.357 138.873 982.978L141.048 984.014C141.615 984.293 142.162 984.594 142.708 984.894C143.696 985.434 144.608 986.102 145.42 986.883C146.231 987.674 146.878 988.618 147.324 989.662C147.77 990.705 148.006 991.827 148.019 992.962L148.173 993.034C148.213 993.088 148.258 993.136 148.308 993.179C149.194 992.92 150.102 992.641 151.112 992.32L153.257 991.626C152.669 988.384 152.164 985.526 151.411 981.352C154.288 982.626 156.216 983.113 157.701 984.21C161.877 987.317 165.301 988.353 168.848 982.978C169.879 981.445 173.622 980.907 175.89 981.269C177.953 981.611 179.705 983.817 181.778 985.339L191.058 981.373C192.368 976.909 193.605 972.715 194.842 968.52C194.987 984.501 205.216 994.754 215.042 1004.7C224.869 1014.64 233.365 1025.84 245.605 1033.1C246.832 1033.83 247.244 1035.93 248.956 1039.12C233.396 1032.4 224.797 1018.05 209.433 1013.13C208.618 1016.01 208.01 1018.16 207.371 1020.29C203.246 1019.94 201.875 1019.26 199.194 1016.26C194.265 1018.34 192.832 1021.95 194.409 1027.04L203.215 1022.48C201.947 1027.86 201.452 1031.47 200.235 1034.82C197.338 1042.82 193.987 1050.66 191.048 1058.64C190.233 1060.86 189.439 1063.58 190.017 1065.72C192.729 1076.18 188.016 1085.21 184.861 1094.43C176.589 1118.23 170.177 1142.65 165.682 1167.46C164.445 1174.35 161.269 1180.86 159.382 1187.66C157.103 1195.88 154.927 1204.16 153.257 1212.51C147.648 1240.64 142.059 1268.76 136.914 1296.97L136.45 1299.48C134.862 1308.22 135.253 1317.3 134.037 1326.13C133.006 1333.84 132.727 1341.9 128.499 1348.01C130.345 1351.55 133.232 1354.66 133.212 1357.73C133.205 1358.35 133.108 1358.96 132.923 1359.54C132.16 1362.18 129.964 1364.91 128.293 1368.25C134.48 1377.82 130.943 1387.34 127.901 1397.07L128.005 1397.12C130.417 1398.79 132.249 1401.18 133.243 1403.95C134.452 1406.97 135.149 1410.17 135.305 1413.42C135.862 1411.46 136.419 1409.51 136.934 1407.53C136.656 1413.53 136.584 1419.56 136.047 1425.56C135.769 1428.66 135.377 1431.77 134.944 1434.88L135.202 1434.83L136.491 1434.67C136.62 1434.64 136.754 1434.64 136.883 1434.67C136.987 1434.71 137.085 1434.77 137.171 1434.84L138.543 1435.87C138.707 1435.99 138.862 1436.12 139.007 1436.27C139.175 1436.45 139.323 1436.65 139.45 1436.86C140.408 1438.37 141.203 1439.98 141.822 1441.66C143.657 1442.2 145.946 1442.45 146.039 1443.03C146.448 1445.25 146.465 1447.53 146.091 1449.76C146.69 1450.53 147.151 1451.39 147.452 1452.32C147.873 1453.66 148.089 1455.06 148.091 1456.46C148.126 1457.03 148.067 1457.59 147.916 1458.14C147.827 1458.4 147.717 1458.66 147.586 1458.91C148.05 1460.29 148.617 1461.8 149.421 1464.33C156.99 1453.38 150.782 1439.83 157.485 1429.91L159.743 1430.37C156.835 1445.97 153.934 1461.55 151.04 1477.12C151.643 1479.96 152.012 1482.84 152.143 1485.73C152.176 1486.52 152.152 1487.31 152.071 1488.1C151.923 1489.15 151.699 1490.19 151.401 1491.21L150.566 1494.32C150.514 1494.52 150.452 1494.72 150.401 1494.92H151.04C150.823 1497.3 150.597 1499.67 150.38 1502.04C150.164 1504.41 149.978 1506.51 149.792 1508.74L149.854 1509.2C151.054 1509.53 152.218 1509.97 153.329 1510.53C153.546 1510.65 153.752 1510.76 153.948 1510.89C154.343 1511.13 154.719 1511.41 155.072 1511.71C155.417 1512.03 155.734 1512.38 156.02 1512.75C156.319 1513.13 156.574 1513.55 156.783 1513.98C157.277 1515.02 157.588 1516.13 157.701 1517.27C158.34 1522.59 160.062 1527.79 159.949 1533.6L156.062 1527.22C145.946 1536.75 148.318 1549.21 148.256 1560.15C148.122 1580.13 150.452 1600.12 151.349 1620.12C151.504 1623.68 149.679 1627.37 148.545 1631.8C152.999 1635.49 154.278 1641.02 154.319 1647.54C154.371 1655.06 155.928 1662.57 156.783 1670.1C157.103 1672.89 157.68 1676.14 154.907 1677.5C154.773 1678.88 154.556 1680.25 154.319 1681.65C154.206 1682.46 154.013 1683.26 153.742 1684.03C153.593 1684.51 153.311 1684.95 152.927 1685.28C152.52 1685.55 152.045 1685.71 151.556 1685.72C150.813 1690.77 147.215 1693.3 141.976 1694.94C147.184 1704.8 147.679 1705.75 143.358 1709.7C143.456 1709.75 143.546 1709.82 143.626 1709.9C143.905 1710.23 144.113 1710.61 144.237 1711.02C144.361 1711.43 144.399 1711.86 144.348 1712.29C144.339 1712.96 144.284 1713.64 144.183 1714.3C144.08 1714.94 143.936 1715.57 143.771 1716.21C145.957 1722.2 149.215 1728.13 145.142 1734.22C145.611 1736.91 145.818 1739.65 145.761 1742.39C145.756 1743.12 145.694 1743.84 145.575 1744.56C145.251 1746.29 144.396 1747.87 143.131 1749.09C144.327 1751.16 145.513 1753.23 146.864 1755.51C146.008 1757.58 145.07 1759.8 144.1 1762.1C143.781 1762.84 143.472 1763.61 143.152 1764.36C144.338 1765.07 146.245 1765.63 147.276 1766.33C147.418 1766.41 147.542 1766.52 147.641 1766.65C147.74 1766.78 147.812 1766.93 147.854 1767.09C149.071 1775.16 149.916 1783.29 150.452 1791.42C150.545 1792.92 149.06 1794.52 146.493 1795.94C146.658 1796.74 146.854 1797.55 146.967 1798.35C147.039 1798.97 147.06 1799.59 147.08 1800.21C147.152 1801.31 147.062 1802.41 146.812 1803.48C146.573 1804.32 146.154 1805.11 145.585 1805.77C150.628 1812.52 154.474 1837.96 151.886 1845.13C151.927 1845.17 151.962 1845.22 151.989 1845.28C152.289 1845.99 152.551 1846.72 152.772 1847.46C152.844 1847.68 152.906 1847.92 152.958 1848.15C153.051 1848.54 153.113 1848.95 153.174 1849.35L153.257 1849.88C153.319 1850.29 153.391 1850.71 153.422 1851.12C153.422 1851.25 153.422 1851.38 153.422 1851.52C153.457 1851.74 153.519 1851.97 153.608 1852.18C158.423 1861.34 161.949 1870.54 163.362 1880.78C166.115 1900.82 170.013 1920.7 173.446 1940.64C174.23 1945.19 175.777 1948.83 180.592 1951C183.634 1952.4 185.748 1955.84 189.738 1959.8L180.19 1960.84C181.984 1969.36 181.5 1978 185.634 1986.32C188.728 1992.59 189.666 2000.01 191.295 2007.03C192.471 2012.05 192.986 2017.22 194.203 2022.23C194.946 2025.34 196.472 2028.19 197.884 2031.76L195.059 2037.04L195.111 2037.12V2037.4C200.39 2045.19 198.142 2053.64 197.049 2062.03V2062.2C197.049 2062.29 197.111 2062.4 197.152 2062.49C199.142 2064.02 201.153 2065.6 203.628 2067.44V2059.57L205.69 2059.01C207.659 2068.33 215.661 2074.69 216.61 2084.57C216.747 2086.64 217.498 2088.61 218.765 2090.25C224.725 2096.79 226.055 2105.21 229.014 2113.03C231.643 2119.99 236.16 2126.24 239.789 2132.82C245.234 2142.72 250.255 2152.87 256.112 2162.5C265.011 2177.14 273.446 2192.27 284.149 2205.48C289.49 2212.09 294.171 2220.22 302.905 2224.27C309.37 2227.26 308.009 2235.01 309.391 2240.84C310.04 2243.57 309.226 2246.63 308.937 2249.59H308.999C309.074 2249.58 309.151 2249.58 309.226 2249.59C309.315 2249.62 309.399 2249.67 309.473 2249.73C309.679 2249.86 309.875 2250.02 310.071 2250.17L310.391 2250.42L311.113 2250.99C311.176 2251.05 311.231 2251.11 311.278 2251.18V2251.13C311.329 2251.22 311.381 2251.31 311.443 2251.41C311.865 2251.49 312.319 2251.5 312.752 2251.58C313.908 2251.82 315.024 2252.22 316.062 2252.78ZM1788.06 2003.65C1792.5 2003.37 1796.31 2007.41 1796.07 2012.19C1795.91 2014.23 1795 2016.13 1793.51 2017.52C1792.02 2018.92 1790.06 2019.7 1788.03 2019.71C1785.99 2019.73 1784.02 2018.98 1782.51 2017.61C1781 2016.24 1780.06 2014.35 1779.87 2012.31C1779.66 2007.92 1783.42 2003.94 1788.06 2003.65ZM1560.05 2241.11C1564.56 2240.82 1568.38 2243.83 1568.62 2247.87C1568.85 2251.7 1565.27 2255.51 1561.03 2255.97C1560.11 2256.11 1559.17 2256.04 1558.27 2255.79C1557.37 2255.54 1556.54 2255.1 1555.82 2254.5C1555.11 2253.9 1554.52 2253.16 1554.11 2252.32C1553.7 2251.48 1553.47 2250.56 1553.43 2249.62C1553 2245.01 1555.81 2241.39 1560.05 2241.11ZM1332.48 2481.59C1336.07 2481.59 1339.45 2485.12 1339.56 2488.84C1339.69 2492.8 1336.07 2496.53 1331.88 2496.75C1327.69 2496.98 1324.66 2493.82 1324.6 2488.92C1324.63 2484.69 1327.96 2481.53 1332.48 2481.59ZM1267.52 1150.62C1271.56 1150.3 1272.94 1152.9 1272.67 1161.37C1268.17 1160.79 1263.39 1162.33 1262.96 1156.19C1262.68 1153.12 1264.2 1150.89 1267.51 1150.62H1267.52ZM1101.57 2726.55C1105.59 2726.76 1108.79 2730.56 1108.73 2735.04C1108.66 2739.34 1105.4 2742.29 1100.63 2742.35C1095.85 2742.41 1092.96 2739.67 1093.02 2734.85C1093.07 2730.4 1097.28 2726.31 1101.57 2726.55ZM582.785 213.895L579.877 208.51L579.227 208.023C579.227 207.868 579.227 207.702 579.227 207.557L573.628 202.151C576.165 202.058 577.639 202.783 578.433 204.025C578.683 204.43 578.871 204.87 578.99 205.33C578.99 205.506 579.062 205.662 579.093 205.827C579.196 206.402 579.244 206.984 579.238 207.567L579.464 207.775L579.846 208.479C581.496 209.742 583.152 210.995 584.816 212.238L582.785 213.895ZM684.475 346.709L685.65 351.183L683.887 351.597L682.928 347.092L684.475 346.709ZM681.629 340.225C680.948 339.728 679.855 339.345 679.711 338.713C679.567 338.082 680.247 337.118 680.866 335.606C681.433 336.513 681.894 337.482 682.237 338.496C682.309 339.014 681.845 339.635 681.629 340.225ZM463.638 86.2603C468.453 77.83 470.391 67.7634 474.073 58.6081C474.939 56.4332 477.62 53.6369 479.63 53.5127C488.141 52.9896 496.674 52.9274 505.192 53.3262C512.688 53.6266 520.216 54.2066 526.928 58.3906C528.662 59.4806 530.678 60.0319 532.723 59.9752C545.169 58.9395 554.532 66.6242 564.853 71.4503C567.349 72.631 568.978 75.7587 569.906 79.456L559.78 73.4492L558.203 75.1787C561.131 78.0371 564.266 80.7092 566.905 83.8058C569.782 87.182 572.205 90.9519 575.391 95.312L586.033 91.7493C583.671 88.2798 581.001 85.7528 580.011 82.6666C575.474 68.6437 575.629 68.6126 563.513 62.989C560.1 61.3837 556.914 59.126 553.367 57.9764C545.221 55.3665 537.302 49.9811 528.362 56.1122C525.268 49.6807 528.96 46.7912 532.692 45.7556C536.817 44.7199 542.127 44.1606 545.757 45.8695C557.464 51.3604 568.827 57.5617 579.784 64.4389C588.672 70.0833 594.22 78.4928 596.787 89.2327C599.138 98.8229 603.366 107.957 606.996 117.196C607.367 118.138 609.336 118.459 611.12 119.35C614.956 127.635 619.153 137.205 623.875 146.536C625.474 149.705 628.453 152.149 630.67 155.018C632.083 156.851 633.692 158.715 634.444 160.838C636.981 167.953 639.435 175.11 641.446 182.401C644.271 192.654 644.776 193.172 655.613 192.167C656.572 192.074 657.531 192.167 659.099 193.907L648.457 197.956C649.416 208.665 647.241 220.627 657.995 227.059C657.995 231.978 657.026 236.307 658.16 239.973C663.048 255.726 668.575 271.292 673.803 286.941C676.174 294.035 678.381 301.16 680.845 308.834H675.504C677.071 315.773 678.597 322.567 680.154 329.382C671.101 310.958 668.812 289.374 651.365 272.856C652.252 278.759 652.829 282.622 653.427 286.454C644.941 263.586 640.91 238.679 620.431 220.254C618.101 230.052 624.473 235.261 627.36 241.661C630.392 248.393 633.382 255.125 634.578 262.706C629.536 253.116 623.628 243.857 619.679 233.832C613.667 218.597 603.263 206.905 591.92 195.958C585.662 189.93 580.712 182.494 571.102 179.77C566.008 178.341 562.358 171.847 557.945 167.767C555.643 165.606 553.011 163.83 550.149 162.506C558.306 172.158 563.554 183.405 570.494 193.648L568.38 195.098C565.823 191.742 562.822 188.615 560.791 184.949C555.336 175.182 547.633 167.456 539.467 160.093C539.209 159.875 538.797 159.699 538.694 159.419C534.93 148.804 526.32 149.809 517.597 150.036C510.1 150.212 502.552 149.156 495.046 148.545C485.405 147.758 478.548 142.331 473.165 134.771C471.361 132.244 469.783 129.592 467.917 127.117C463.555 121.411 462.194 113.136 451.027 110.982C464.277 105.472 459.152 94.0795 463.638 86.2603ZM397.996 2317.08L398.542 2317.24L398.284 2317.49C398.181 2317.36 398.089 2317.22 397.996 2317.08C390.262 2314.68 389.396 2313.65 387.128 2305.08C393.418 2307.12 395.005 2312.77 397.996 2317.04V2317.08ZM338.005 2247.22C335.942 2255.59 339.469 2260.75 347.006 2265.38C353.245 2269.21 357.648 2275.98 363.03 2281.29C366.443 2284.67 370.248 2287.66 373.692 2290.99C376.012 2293.2 378.085 2295.68 380.271 2298.04L378.208 2299.95C372.022 2294.07 366.082 2287.92 359.648 2282.41C354.968 2278.45 349.916 2274.95 344.563 2271.97C340.108 2269.48 336.613 2267.15 336.169 2261.35C335.963 2258.56 333.457 2256.02 332.333 2253.23C330.993 2249.89 330.024 2246.41 328.209 2240.87L338.005 2247.22ZM313.257 2202.37C318.908 2213.76 325.322 2224.86 326.518 2237.91C322.373 2225.96 312.659 2216.15 313.309 2202.41L313.257 2202.37ZM61.806 144.713L60.4655 141.927C63.8785 137.65 68.1887 135.641 76.0356 137.422L61.806 144.713ZM108.341 159.212C108.021 158.415 107.702 157.628 107.372 156.83C109.434 155.795 111.496 154.655 114.755 152.947C113.486 158.011 111.661 159.709 108.341 159.223V159.212ZM144.235 129.116C144.751 128.82 145.293 128.57 145.853 128.37C146.74 129.623 147.493 130.97 148.277 132.295L146.575 133.165L144.235 129.116ZM148.359 190.572C147.637 186.171 147.637 186.171 150.607 182.411C155.556 187.714 155.556 187.714 148.38 190.583L148.359 190.572ZM177.612 158.032C176.973 157.462 175.942 156.996 175.808 156.292C175.674 155.588 176.54 154.863 177.231 153.703C178.087 154.738 179.046 155.36 179.046 156.012C179.046 156.665 178.148 157.369 177.633 158.042L177.612 158.032ZM196.348 105.865C194.894 110.598 192.43 110.516 187.542 106.207C191.398 104.84 193.409 104.136 195.379 103.442C195.925 104.695 196.575 105.399 196.369 105.876L196.348 105.865ZM206.185 54.2169C205.154 54.3147 204.114 54.2031 203.126 53.8889C202.139 53.5747 201.224 53.0642 200.438 52.3878C199.651 51.7115 199.007 50.883 198.546 49.9518C198.084 49.0206 197.813 48.0056 197.75 46.9673C197.642 45.8493 197.769 44.7211 198.121 43.6552C198.474 42.5894 199.045 41.6096 199.798 40.7792C200.551 39.9487 201.469 39.2861 202.493 38.8339C203.517 38.3817 204.623 38.15 205.741 38.1538C209.773 38.1538 213.557 41.8304 213.795 46.0352C213.84 48.1242 213.073 50.1488 211.656 51.6785C210.239 53.2083 208.283 54.1226 206.205 54.2273L206.185 54.2169ZM19.4368 846.571C18.9212 844.955 18.4057 843.34 17.8798 841.724L19.6946 840.978L21.9321 845.525L19.4368 846.571ZM137.914 1398.64L135.707 1398.2C136.027 1395.49 136.357 1392.79 136.676 1390.08L140.275 1390.81C139.484 1393.42 138.697 1396.03 137.914 1398.64ZM144.327 1337C145.255 1332.01 145.874 1328.63 146.668 1324.35C153.432 1332.73 153.381 1333.14 144.327 1337ZM274.631 1052.81L262.68 1042.22C270.167 1042.33 270.703 1042.83 274.631 1052.81ZM248.234 1032.94H260.237C260.061 1034.89 259.866 1037.08 259.494 1041.07L248.234 1032.94ZM239.367 1075.4L258.896 1045.9C262.577 1078.3 246.172 1103.71 233.551 1130.31C235.417 1112.46 245.409 1095.5 239.367 1075.42V1075.4ZM222.198 1059.87C222.869 1061.82 222.353 1063.94 221.703 1066.08C221.703 1066.08 221.703 1066.16 221.703 1066.2C221.971 1068.5 222.27 1070.77 222.57 1073.03C222.673 1073.83 222.786 1074.61 222.889 1075.4L220.878 1075.49L221.683 1066.42V1066.19C221.688 1066.16 221.688 1066.13 221.683 1066.1C221.092 1063.02 220.5 1059.95 219.909 1056.89C220.252 1057.16 220.573 1057.45 220.868 1057.76C221.048 1057.95 221.217 1058.15 221.373 1058.36C221.726 1058.81 222.005 1059.31 222.198 1059.84V1059.87ZM220.136 1033.78L213.207 1020.92C222.353 1026.03 222.353 1026.03 220.146 1033.76L220.136 1033.78ZM196.42 1124.6L197.864 1125.78L195.389 1131.84L194.358 1131.49L196.42 1124.6ZM201.926 1137.69C204.525 1140.64 203.679 1143.23 201.349 1145.82C199.287 1148.1 198.111 1150.43 202.462 1152.77C210.031 1141.7 210.299 1127.86 215.63 1115.36C214.472 1116.07 213.354 1116.84 212.279 1117.68C211.248 1118.56 210.402 1119.63 208.979 1121.14C208.776 1120.17 208.687 1119.19 208.711 1118.2C209.742 1112.89 211.506 1107.65 211.887 1102.3C212.413 1094.9 217.579 1090.29 221.817 1084.42C222.219 1086.94 222.704 1089.44 222.972 1091.97C223.147 1093.62 222.281 1096.19 223.085 1096.84C229.189 1101.75 224.817 1107.29 223.456 1111.77C219.925 1123.18 215.714 1134.37 210.846 1145.28C206.814 1154.37 201.565 1162.88 196.554 1172.29C190.244 1164.05 193.069 1149.27 201.968 1137.66L201.926 1137.69ZM201.524 1217.33L199.276 1219.18C198.929 1218.45 198.686 1217.67 198.554 1216.87C198.554 1216.39 199.163 1215.84 199.503 1215.38L201.524 1217.33ZM161.021 1729.16C160.451 1728.58 159.977 1727.91 159.619 1727.17C159.485 1726.74 160.062 1726.14 160.33 1725.53L162.733 1726.74C162.022 1727.78 161.516 1728.47 161.063 1729.14L161.021 1729.16ZM167.806 1425.71C167.517 1420.53 167.301 1416.58 167.074 1412.6L160.795 1411.5C162.651 1408.11 164.311 1405.09 165.95 1402.09L167.796 1402.49L167.806 1425.71ZM169.765 1506.93L172.457 1506.44C172.965 1514.43 173.474 1522.41 173.983 1530.38C168.064 1523.1 170.631 1514.8 169.765 1506.93ZM168.311 1494.44V1476.83C175.344 1478.75 167.899 1483.34 170.58 1485.79C174.292 1489.24 171.085 1491.73 168.301 1494.44H168.311ZM166.816 1301.75C163.145 1291.63 163.857 1289.55 171.776 1287C170.095 1291.98 168.734 1295.99 166.806 1301.75H166.816ZM163.475 1247.59V1235.16C165.228 1238.65 167.528 1242.16 163.465 1247.59H163.475ZM172.137 1689.66C172.642 1697.19 173.044 1703.13 173.581 1711.19C166.569 1701.96 166.445 1699.36 172.127 1689.66H172.137ZM175.519 1570.11C175.983 1573.48 176.437 1576.85 176.89 1580.22L175.467 1580.46C174.859 1577.1 174.261 1573.74 173.653 1570.38L175.519 1570.11ZM179.51 1801.33C175.777 1792.67 173.385 1784.01 176.818 1774.86C181.273 1783.32 183.314 1792.06 179.499 1801.33H179.51ZM185.418 1850.53C183.985 1839.38 182.551 1828.21 180.912 1815.38C188.243 1821.87 188.944 1824.82 187.171 1831.17C186.387 1833.97 186.583 1837.13 186.789 1840.09C187.026 1843.41 187.82 1846.69 188.315 1849.98L185.418 1850.53ZM186.996 1230.75C186.511 1250.05 178.468 1266.73 171.601 1283.78L169.487 1283.53C169.239 1281.8 168.404 1279.89 168.848 1278.35C170.91 1271.21 173.189 1264.11 175.756 1257.13C181.601 1240.77 182.674 1223.07 178.85 1206.12C175.756 1207.51 172.663 1208.87 169.652 1210.26C169.59 1210.36 169.549 1210.45 169.497 1210.54V1210.69C170.106 1211.37 170.91 1212.01 171.075 1212.76C171.982 1217.03 167.002 1231.4 163.527 1235.02V1235.08C164.517 1231 165.514 1226.92 166.517 1222.85C167.521 1218.77 168.497 1214.71 169.446 1210.66C169.384 1210.6 169.332 1210.52 169.281 1210.46L169.497 1210.37C170.982 1207.65 173.622 1205.69 175.467 1203.12L175.736 1202.71C175.911 1202.45 176.072 1202.18 176.22 1201.91C176.376 1201.63 176.517 1201.34 176.643 1201.05C177.177 1199.77 177.414 1198.39 177.334 1197.01C177.272 1195.81 180.561 1194.08 182.582 1193.26C184.325 1192.55 186.449 1192.79 188.212 1192.64C191.986 1177.17 191.986 1177.18 197.492 1176.52C192.729 1193.59 186.965 1210.41 193.481 1228.39L186.996 1230.75ZM195.925 2008.75L195.306 2003.57L196.894 2003.36L197.451 2008.6L195.925 2008.75ZM201.081 1988.7C194.131 1982.55 194.018 1974.26 190.398 1967.91L197.235 1961.55L202.689 1967.33C195.368 1973.46 201.998 1980.61 201.112 1988.7H201.081ZM201.287 1947.43L193.45 1942.25C193.935 1939.4 194.317 1937.15 195.09 1932.57L202.7 1946.25L201.287 1947.43ZM199.947 1867.9C199.565 1864.22 200.081 1860.45 200.246 1856.72C200.279 1856.56 200.349 1856.41 200.451 1856.29C200.553 1856.16 200.684 1856.06 200.833 1855.99C201.101 1855.99 201.442 1856.24 202.06 1856.53C203.091 1862.53 204.123 1868.74 205.381 1875.77C200.441 1874.53 200.276 1870.84 199.977 1867.9H199.947ZM206.886 1881.22C211.196 1897.12 215.506 1913.01 219.899 1929.24L214.341 1934.42L214.475 1934.9C220.342 1938.35 217.692 1945.03 218.827 1950.22C217.369 1945.12 215.919 1940.01 214.475 1934.9L214.042 1934.66L214.114 1934.6L214.32 1934.4C212.695 1931.38 211.388 1928.2 210.423 1924.9C209.784 1922.76 209.258 1920.59 208.845 1918.39C208.639 1917.29 208.453 1916.19 208.288 1915.09C206.639 1904.06 206.917 1892.71 204.607 1881.8L206.886 1881.22ZM212.32 2009.73C209.887 2006.01 207.45 2002.29 205.009 1998.57L206.278 1997.71C208.67 2001.46 211.076 2005.2 213.496 2008.94L212.32 2009.73ZM222.497 2057.04L213.898 2037.86L216.476 2036.7L225.013 2056.02L222.497 2057.04ZM227.034 2013.54C221.807 2001.38 218.569 1988.35 214.568 1975.66C214.341 1974.94 215.114 1973.9 215.795 1971.94C219.466 1975.77 224.89 1976.85 224.415 1983.46C224.292 1985.11 226.478 1986.87 227.447 1988.64C228.1 1989.84 228.576 1991.13 228.859 1992.47C229.478 1995.58 222.24 1995.4 225.57 1999.38C227.282 2001.45 230.334 2002.31 232.788 2003.77C232.926 2003.87 233.038 2004.01 233.115 2004.17C233.192 2004.32 233.232 2004.49 233.231 2004.67C230.849 2015.36 240.449 2022.58 241.109 2032.75C241.594 2040.66 245.419 2048.28 247.482 2056.18C248.771 2061.09 249.544 2066.14 250.688 2071.94L256.391 2070.72C256.379 2071.46 256.505 2072.2 256.762 2072.89C256.879 2073.21 257.021 2073.51 257.185 2073.81C258.378 2075.64 259.818 2077.3 261.464 2078.74C261.992 2079.26 262.491 2079.8 262.959 2080.38C263.194 2080.65 263.414 2080.94 263.619 2081.25C263.884 2081.63 264.118 2082.04 264.32 2082.46C264.413 2082.66 264.506 2082.88 264.578 2083.1C264.948 2084.12 265.048 2085.23 264.866 2086.3C264.866 2086.49 264.805 2086.67 264.753 2086.87C264.603 2087.49 264.389 2088.1 264.114 2088.68C263.99 2088.95 263.856 2089.22 263.691 2089.51L263.949 2089.42C263.804 2089.62 263.66 2089.82 263.526 2090.03C264.691 2090.53 266.382 2090.72 266.888 2091.61C270.62 2098.16 274.229 2104.77 277.601 2111.5C279.9 2116.09 282.025 2120.75 278.343 2125.93C277.436 2127.21 278.209 2129.68 278.209 2132.29C271.899 2130.82 272.93 2125.16 271.084 2121.7C268.548 2116.97 267.156 2111.64 264.99 2106.69C262.577 2101.2 259.649 2095.85 263.526 2090.03H263.433C263.536 2089.86 263.629 2089.7 263.712 2089.53C257.865 2091.7 256.927 2085.87 255.586 2083.1C253.256 2078.3 250.616 2075.21 243.821 2075.85C242.512 2068.39 241.759 2061.27 239.954 2054.45C236.119 2040.61 232.664 2026.78 226.993 2013.51L227.034 2013.54ZM244.955 2100.03C242.109 2094.46 239.26 2088.89 236.407 2083.31L238.243 2082.27L246.904 2098.54L244.955 2100.03ZM248.43 2085.05L250.853 2083.93C253.173 2089.26 255.535 2094.6 257.814 2099.95C260.216 2105.57 262.546 2111.24 264.897 2116.88C264.124 2117.32 263.351 2117.75 262.567 2118.18L248.43 2085.05ZM265.784 2129.27L263.722 2125.21L265.073 2124.5C265.774 2125.84 266.465 2127.19 267.135 2128.53L265.784 2129.27ZM287.108 2159.39L284.551 2159.05L275.941 2157.93L267.187 2135.37C280.725 2144.6 282.437 2146.99 287.067 2159.39H287.108ZM296.203 2186.81C291.521 2184.74 291.397 2181.5 292.191 2177.9H292.13V2177.62L287.273 2168.02L287.995 2168.29C288.419 2168.47 288.829 2168.68 289.222 2168.93C290.107 2169.45 290.844 2170.2 291.367 2171.09C291.511 2171.33 291.635 2171.59 291.738 2171.86C291.879 2172.21 291.993 2172.58 292.078 2172.95C292.078 2173.13 292.15 2173.32 292.171 2173.49C292.36 2174.87 292.36 2176.26 292.171 2177.64L292.222 2177.73V2177.88C292.989 2178.12 293.696 2178.52 294.295 2179.06C294.894 2179.59 295.373 2180.25 295.697 2180.99C295.759 2181.15 295.811 2181.3 295.873 2181.47C295.979 2181.81 296.062 2182.15 296.12 2182.5C296.302 2183.92 296.315 2185.36 296.161 2186.78L296.203 2186.81ZM285.974 1072.14C285.231 1067.49 284.54 1063.13 283.798 1058.52C291.068 1064.13 299.585 1067.51 309.442 1067.13L285.974 1072.14Z" fill="black"/>
<path d="M1319.94 654.29C1313.96 649.837 1308.44 650.593 1303.63 656.786L1314.01 655.326C1314.21 656.051 1314.41 656.786 1314.61 657.521C1289.03 668.085 1263.45 678.649 1237.86 689.213C1211.76 699.963 1185.66 710.671 1160.34 721.08C1159.43 733.383 1152.64 742.746 1154.15 754.221C1155.57 764.702 1154.68 775.473 1155.57 786.057C1156.47 796.807 1154.41 808.107 1160.85 819.198C1169.29 815.47 1177.44 807.268 1187.55 815.449C1180.1 820.307 1170.08 818.701 1164.87 826.738C1175.18 837.488 1205.59 840.709 1221.9 831.782L1199.86 829.255L1200.05 826.676C1203.3 826.458 1206.69 825.537 1209.78 826.137C1220.56 828.209 1229.96 824.449 1239.37 820.172C1241.36 819.271 1243.42 818.567 1245.45 817.759L1246.08 819.022L1235.58 827.453C1240 828.364 1242.69 829.617 1245.17 829.296C1252.92 828.333 1260.56 826.655 1268.28 825.464C1287.1 822.575 1305.61 817.583 1324.85 817.396C1329.56 817.396 1334.29 815.087 1338.96 815.325C1355.02 816.029 1368.87 809.287 1383.17 803.529C1390.23 800.681 1396.03 794.633 1404.82 795.409C1407.44 795.637 1410.46 791.981 1413.17 789.931C1415.35 788.294 1417.21 786.213 1419.43 784.69C1432.14 775.918 1444.99 767.353 1457.59 758.478C1462.74 754.863 1467.48 750.669 1472.41 746.744L1471.73 744.745L1427.12 738.904L1429.65 731.934C1420.57 726.237 1411.35 720.407 1402.08 714.669C1396.34 711.106 1390.98 706.146 1384.16 713.82C1381.68 716.606 1376.77 715.829 1374.14 712.256C1373.03 710.893 1372.48 709.16 1372.6 707.406C1372.71 705.652 1373.48 704.007 1374.75 702.8C1376.03 701.558 1377.37 700.386 1378.77 699.289C1373.23 694.111 1368.37 689.368 1363.21 684.925C1352.89 676.029 1343 666.469 1330.29 660.732C1326.63 658.954 1323.16 656.795 1319.94 654.29Z" fill="black"/>
</g>
<defs>
<clipPath id="clip0_32754_2">
<rect width="2100" height="3200"/>
</clipPath>
</defs>
</svg>
