<svg
    id="Capa_1" 
    data-name="Capa 1"
    xmlns="http://www.w3.org/2000/svg"
    viewBox="0 0 2105.96 3188.87"
    class="fill-current"
    >
        <style>
            #Capa_3 {
            fill: text-red-500; 
        }
        </style> 
        <g id="Capa_3" data-name="Capa 3" class="cls-1">
            <path 
                d="M84.66,729.46q1.59,7.53,3.17,15.08C91.77,738.44,89.38,733.7,84.66,729.46Z"
                transform="translate(-30.11 -6.37)"
            />
            <path  
                d="M75.4,825.15c9.47.05,17.89-3.4,28.53-5.06-3.27-4.36-5.53-7.51-7.93-10.54-3.64-4.62-7.49-9.07-11.06-13.73-1.79-2.35-2.66-5.61-4.82-7.44-6.36-5.42-9.53-12.57-12.23-20.09-1.61-4.53-4-7.37-9.51-6.7-2.18.27-4.61-1.54-6.75-2.36,2-10.08-7.45-43.19-15.22-52.16,2.23,20.76-.32,40.55,11.42,57.47l-5,4.15c2.74,5.74,5.41,11,7.74,16.35,4.84,11.19,9.71,22.39,14.15,33.76C66.81,824.07,69.9,825.12,75.4,825.15Z"
                transform="translate(-30.11 -6.37)"
            />
            <path 
                d="M108,813.6c3.72,5.17,5.77,5.87,11.33,2.67a82.83,82.83,0,0,0,7.09-5.13c-10.6-23.15-20.88-45.58-31.15-68-.45.18-.91.34-1.36.51-.68,12.79-1.08,25.6-2.18,38.35-.49,5.66.48,10.58,3.73,15C99.49,802.61,103.9,808,108,813.6Z"
                transform="translate(-30.11 -6.37)"
            />
            <path 
                d="M129.08,286.72c0,13.1-.28,26,.07,38.86.39,14.26,1.15,28.52,2.17,42.75.44,6.13,1.94,12.19,3,18.28l3.46-.28c.4-11.75.07-23.61,1.4-35.26s4.32-23.36,6.56-34.93a29.43,29.43,0,0,1-2.63-2.14c-6.71-6.93-5.46-11.26,3.79-13.66a37.92,37.92,0,0,0,5.49-2.4C144.38,294.31,140.58,283.73,129.08,286.72Z"
                transform="translate(-30.11 -6.37)"
            />
            <path 
                d="M200.5,409.51c2-10.41,3-21,6.59-31.09,3.67-10.34,9.94-20.17,15.16-30.11.34-.65-.06-1.42-1-2a26.76,26.76,0,0,1-2.69-1.7,32,32,0,0,1-4.39-3.88c-3.67-4.07-2.19-6.52,4.47-7.51a58.49,58.49,0,0,1,8.17-.51,36,36,0,0,0,3.91-.24c2.41-.26,3-1.93,1-3-8.67-4.84-14.48-11.59-27.27-13.23-1.16-.15-2.37-.27-3.65-.33a3.1,3.1,0,0,0-2.86,1,1,1,0,0,0-.13.37c-.15,1-.29,2.08-.45,3.12-.68,4.75-1.4,9.48-2.06,14.19-.84,5.87-1.6,11.72-2.1,17.61-1.15,13.44-1.67,27-1.73,40.53,0,5.23,1.42,10.59,2.42,15.92a1.62,1.62,0,0,1,0,.19c.13.73,1,1.39,2.14,1.73a5.46,5.46,0,0,0,1.11.23h.06C198.91,411,200.33,410.42,200.5,409.51Z"
                transform="translate(-30.11 -6.37)"
            />
            <path 
                d="M502.49,145.58c1.81,2.37,3.34,4.95,5.09,7.38,5.26,7.31,11.87,12.55,21.22,13.31,7.28.59,14.6,1.61,21.87,1.43,8.5-.22,16.81-1.18,20.46,9.07.1.27.5.43.75.65,7.92,7.11,15.39,14.56,20.68,24,2,3.53,4.88,6.55,7.36,9.79l2.05-1.39c-6.74-9.89-11.82-20.75-19.73-30.07a28.62,28.62,0,0,1,7.56,5.08c4.28,3.94,7.82,10.21,12.76,11.59,9.32,2.6,14.12,9.8,20.19,15.63,11,10.58,21.09,21.86,26.92,36.57,3.83,9.68,9.56,18.61,14.45,27.88-1.19-7.31-4.09-13.82-7-20.32-2.8-6.18-9-11.22-6.72-20.67,19.83,17.79,23.74,41.84,32,63.92l-2-13.13c16.94,15.94,19.14,36.79,27.92,54.58-1.5-6.58-3-13.15-4.51-19.84H709c-2.39-7.41-4.53-14.3-6.83-21.14-5.07-15.11-10.43-30.14-15.17-45.35-1.1-3.54-.16-7.72-.16-12.47-10.43-6.21-8.32-17.76-9.25-28.11l10.32-3.9c-1.52-1.69-2.45-1.77-3.38-1.68-10.51,1-11,.47-13.74-9.44-2-7-4.33-13.94-6.79-20.81-.73-2-2.29-3.85-3.66-5.62-2.15-2.77-5-5.13-6.59-8.19-4.58-9-8.65-18.27-12.37-26.25-1.76-.87-3.67-1.17-4-2.09-3.52-8.92-7.62-17.75-9.9-27-2.54-10.36-7.87-18.49-16.49-23.93a307.15,307.15,0,0,0-33-17.93c-3.52-1.66-8.67-1.16-12.67-.11-3.62.94-7.16,3.75-4.2,9.95,8.67-5.91,16.35-.71,24.25,1.81,3.44,1.11,6.53,3.29,9.84,4.84,11.75,5.47,11.6,5.5,16,19,1,3,3.55,5.42,5.84,8.77l-10.32,3.44c-3.09-4.21-5.44-7.85-8.23-11.11-2.56-3-5.6-5.57-8.44-8.33l1.53-1.67,9.82,5.8c-.94-3.58-2.48-6.6-4.9-7.73-10-4.66-19.09-12-31.16-11.09a10,10,0,0,1-5.66-1.53c-6.51-4-13.81-4.59-21.08-4.88a230.3,230.3,0,0,0-24.79.17c-1.95.13-4.55,2.83-5.39,4.93-3.57,8.84-5.45,18.55-10.12,26.7-4.35,7.58.62,18.5-12.14,23.87C496.94,132.08,498.26,140.07,502.49,145.58Z"
                transform="translate(-30.11 -6.37)"
            />
        </g>

        <g id="Capa_4" data-name="Capa 4" class="cls-3">
            <path
                d="M353.88,2198.37a13.66,13.66,0,0,1,2.68,2,22.28,22.28,0,0,1,2.26,2.5c.71.89,1.37,1.82,2,2.75s1.3,1.83,2,2.71c5.48,7.05,10.31,14.6,15.71,21.71,2.95,3.87,6.51,7.29,9.89,11l5.69-4.31c8.3,18.68,24.2,30.63,36.81,45.29,18.05,21,36.45,41.7,53.4,63.63.57.74,1.47,1.24,3.46,2.88-.61-2.91-.56-4.75-1.35-6.1-10.52-18-20.87-36.06-31.91-53.7-3.82-6.11-9.4-11.11-14.23-16.58-2.57-2.92-5.35-5.71-4.47-10l-.16-.17.24-.23c0,.13-.06.27-.08.4,5.49,6.07,11.72,11.64,16.3,18.34,13.07,19.15,27.07,37.72,36.91,59,3.72,8,9.28,15.21,13.84,22.87,4.91,8.23,8.91,17.11,14.59,24.75,9.47,12.74,20,24.71,30.39,37.45-2.06,1.29-6.13,1.77-4.38,5.83,7.22,5.82,8.46,14.87,11.15,22.73,4.56,13.31,11.41,25.33,18,37.54.18.32,1.1.24,2.87.56l-15.29-38.72,1.74-.83c3.69,7.43,8,14.63,11,22.35,8.22,21.38,16.44,42.75,27.86,62.69,4.62,8.06,9.9,15.75,14.34,23.9,6.81,12.49,13.19,25.21,19.63,37.89a12.75,12.75,0,0,1,1.12,6.56c-9.76-17.35-19-34.87-31.78-50.43,3.53,12.32,7.19,24.6,10.58,37,6.07,22.1,12.51,44.12,17.83,66.4,9.25,38.69,17.78,77.55,26.6,116.35,2.94,12.93,6.25,25.79,8.65,38.82q6,32.25,10.89,64.71c2.39,15.68,4.06,31.48,5.91,47.26a18.39,18.39,0,0,1-1.19,9.22l-13.36-87.79h-2.44c-2.5,17.09,2.81,33.58,4,50.37,1,14,2.63,27.84,4,41.76,1.34,14.22,2.44,28.46,4,42.65,1.53,13.55,2.94,27,.61,40.67-5.5-19.25-5.74-39.16-10.6-58.66,0,2.89-.06,5.79,0,8.66.09,3.33.23,6.66.47,10,1.45,20.19,3.21,40.36,4.34,60.57.87,15.53.93,31.1,1.44,46.65.09,2.76.62,5.51,1.09,9.45,7.47-4.23,13.83-7.18,20.84-3.36,2.33,1.28,4.5,2.83,6.8,4.14,6.86,3.91,13.63,8,20.7,11.52a21.71,21.71,0,0,0,9.68,1.94c6.32-.11,9.13-4,9.41-10.35a92.94,92.94,0,0,1,2.22-16.52c1.37-6,4.81-10.35,12.13-9.57,1.8-5.66,2.55-6.09,1.64-20.66-.13-2,1.26-3,3.11-2.14,10.82,4.9,19.22,13.39,28.83,20.13.91.64,2.49.3,3.68.4,2.18-4.72,3.6-9.51,6.36-13.32,3.61-5,9.06-2,14.73-.82,2.53-12.12,5.3-23.61,7.23-35.25,1.47-8.86,3.31-17.1,12-22.15a.87.87,0,0,0,.36-.46c2.92-9,9.88-10.36,17.52-10.2,7.87.16,13.07-2.54,15.79-10.66,2.89-8.63,5.54-16.92,3.84-26.23-.69-3.8,0-8,.74-11.88,1.94-10.22,4.2-12.39,14.67-12.3,6.59,0,11.6-1.85,15.61-7,5.28-6.8,12.15-9.6,20.94-9.22,8.44.37,14.7-5.71,16.82-13.92,3.14-12.23,5.95-24.61,10.19-36.48,6-16.72,18-25.84,36.47-25.18,4.32.15,8.68.24,13,0,9.93-.63,17.85-7.45,19-17.27.87-7.61.25-15.39.34-23.08,0-.34,0-.69,0-1-1.75-16.23.12-23.49,17.74-21.89,6,.55,10.07-2.77,13.85-6.56,4.69-4.69,9.29-8.95,15.66-11.89,8.71-4,6.92-13.4,7-21.17s-.85-15.29-.51-22.9c.49-10.7,5.56-14.43,15.77-11.86,5.79,1.47,11.37,3.78,17,5.78,9.77,3.47,15.6,1.15,18.63-8.56a47.26,47.26,0,0,0,2.3-16.65c-.64-10.6-2.65-21.1-3.68-31.68-.67-6.91-1.42-14-.69-20.82,1-9,7.65-12.78,15.81-9,6.56,3.07,12.54,7.43,18.65,11.41,5.28,3.45,10.2,7.49,15.63,10.67a38,38,0,0,0,11.13,4.07c6.9,1.49,10.74-.8,11-7.66.24-7.54-.94-15.17-1.93-22.7-.81-6.23-2.82-12.36-3.13-18.6a14.33,14.33,0,0,1,3.8-9.5c.95-1,5.66.47,8,1.91,8.77,5.4,17.21,11.35,25.9,16.89a50.35,50.35,0,0,0,9,4.35c8.27,3.21,10.46,2.34,14.87-5.37.49-.86.88-2,1.65-2.45,9.55-5.57,9.9-14.94,10.28-24.36.41-10.18.82-20.37,1.55-30.54a7.86,7.86,0,0,1,.2-1.18c3.55-13.33,8-18,19.72-16.27,8.19,1.24,16.17,3.8,24.24,5.77,11.43,2.79,19.34-1.2,23.86-12.07,4.41-10.61,5.26-21.92,6.46-33.17.38-3.62,1-7.22,1.65-10.81,2.43-14.18,10.89-16.57,23.53-14.17,5.87,1.11,11.57,3.13,17.35,4.7,3.21.87,6.41,1.84,9.67,2.49,6.52,1.28,12-1.79,13.69-8.27a59,59,0,0,0,1.48-12.83c.27-8,.27-16,.24-24a15.61,15.61,0,0,1,5.84-12.8c12.94,3.07,23.52,12.79,38.61,11.58-1.18-2.16-1.54-3.45-2.38-4.24-4.17-3.89-4.53-7.72-.68-12.17a10.39,10.39,0,0,0,2.7-6.13c-.06-10.62,5.6-15.67,16.16-17.1,7.55,8.39,18.58,8.79,29,9.76,4.78.45,10.72.14,13.56-6.16.9-2,3.68-3.69,6-4.46,10.76-3.63,16.47-11.12,16.75-22.21.25-10-.59-19.91-.69-29.87-.09-8.94-.76-18,.49-26.81,1.75-12.22,9-14.16,21.53-7.89,3,1.5,6,2.9,10.13,4.84,6.18,14.1,19.33,20.15,34.54,15.55,2.73-5.86,6.44-10.9,7.29-16.37,1-6.71-.15-13.81-.66-20.71-.65-8.93-1.69-17.82-2.28-26.75a15.1,15.1,0,0,1,1.36-6.79c2.09-4.69,6.14-6.26,10.59-3.71,6,3.46,11.67,7.59,17.54,11.33,4.71,3,9.51,5.87,15.18,9.35,1.32-3.28,2.15-5.61,3.19-7.86,1.39-3,2.17-7.16,4.56-8.66,9.38-5.87,8.39-15,7.1-23.23-1.75-11.07.73-21.11,3.71-31.36a19.71,19.71,0,0,0,.71-7.59c-1-8.45.49-10.34,9.39-11,1.28-.1,2.55-.22,4.43-.39,0-3.88,0-7.45,0-11,.1-7,4.28-10.28,10.33-6.84,6.56,3.73,12.24,9,18.27,13.71,2,1.52,3.85,3.17,7.53,3.8q-1.26-5.58-2.51-11.16a64.5,64.5,0,0,1-1.74-7.75c-1-9.59,2.29-12.3,11.46-9.63,4.13,1.2,8.2,2.63,12.1,3.9l9.27-6.6c-1-10.93-2-22.82-3.27-34.66-1.4-12.52-4.38-24.84-1.24-37.63,2.69-10.93,7.35-14.79,18.5-12.55a165.54,165.54,0,0,1,18.16,5.23c5.14,1.67,10.2,2.15,15.35,5.55,12.36,8.18,26.36-.16,27.37-12a176.58,176.58,0,0,0,.35-28.81c-.75-9.55-3.52-18.92-4.56-28.47a150.13,150.13,0,0,1-.68-24.9c.5-8.45,5.1-11.33,12.94-7.86,9.15,4,18.07,8.67,25.68,15.58,3.56,3.23,8.37,5.08,13.82,8.26.36-3.8.94-6.28.77-8.69-.74-10.59-.82-10.58,7.36-17.38-1.88-11.7-3.82-23.8-5.77-35.9-.06-.32-.2-.64-.26-1-3-17,2.12-21.57,18.75-16.54,5.94,1.8,11.7,5,18.19,1,1.37-.86,4.25.69,6.31,1.11,11.51-8.69,9.82-20.85,9.33-32.81-.33-8-.71-16,0-23.86.92-10,5.59-13.07,15.77-11.11,5.85,1.14,11.52,3.2,17.35,4.49,4.82,1.06,9.22,2.18,13.46,5.37,3.46,2.6,8.65,3.67,13.14,3.84,2.7.1,6.62-2.16,8-4.52a26,26,0,0,0,3.46-12.23c.43-18.41-2.49-36.42-7.19-54.22-3.13-11.86-4.65-25.45,4.33-34.93a2.77,2.77,0,0,1,2.33-.74c12.77,2.91,23,10.93,33.72,18,4.44,2.93,8.53,6.43,13.12,9.09,2.53,1.47,5.75,1.72,10.24,3-2.57-7.45-4.45-12.92-6.55-19l4.77-5.54-11.49-15.46c-.63-8-1.23-18-2.28-27.89-.53-5,.64-9.15,4-12.7,4.25-1,4.93,2,6.25,4.84,1.72,3.7,4.09,7.18,9.75,3.93a25.37,25.37,0,0,1-.18-4.48c.75-6,3.87-8.83,9.92-8.57,4,.17,7.89.92,11.83,1.43,5.11.67,6.72-1.13,5.27-6.15-1.2-4.13-2.59-8.2-4.07-12.83h-8.05c.3-4.72.24-8.93.89-13,1.09-6.9,2.75-13.7,3.95-20.57,1.27-7.27-.71-11.38-7.3-14.58-4.18-2-8.66-3.43-13-5.19-10.14-4.12-20.16-8.59-30.45-12.31a94.14,94.14,0,0,0-19.2-4.77c-5.54-.75-11.25.26-15.47-4.93-1-1.19-3.65-1-6.41.21l37.69,25.42c-5.94,2.19-9.76.34-13.37-1.87-11.89-7.27-23.6-14.85-35.58-22-14.85-8.83-29.76-17.58-44.89-25.93-16-8.85-32.26-17.27-48.49-25.72-30.37-15.8-60.72-31.65-91.26-47.12a111.11,111.11,0,0,0-35-11c-21.71-3.05-43.36-7.18-63.29-16.89-8.91-4.34-17.88-9.23-25.44-15.53-12.87-10.73-27.1-19.19-41.23-27.92-22.33-13.8-45.56-26.33-65.77-43.18-16.49-13.76-33-27.4-47.19-44-13.65-15.93-27.77-32.33-46.33-43.52a5.8,5.8,0,0,1-.94-.71c-6-5.64-11.08-12.93-20.58-11-.2,0-.57-.78-.89-1.32l-.23,0,0,0,0,0h0l0,0-.33-.39c-3.23-1-6.91-1.38-9.36-3.33-10.62-8.48-21.23-17.06-31.09-26.4-20.18-19.13-34.88-42.62-49.82-65.73-12.59-19.47-23.86-39.81-35.57-59.85-4.49-7.68-11.35-12.81-18.62-17.93a300.3,300.3,0,0,0,28.49,58.77c11.84,18.8,24.21,37.26,42.43,53.47-5.35-.17-7.6-2.52-9.52-4.62-8.5-9.32-16.77-18.85-25.14-28.28-3.4-3.83-5.07-9.37-11.64-10-1.78-.18-3.39-3.73-4.77-5.92-17.29-27.65-33-56.18-46-86.06-6.36-14.53-11.74-29.5-17.26-44.38a34.28,34.28,0,0,1-2.14-11.67c0-8.5-3.78-15.21-8.29-22s-9.1-13.9-13.56-20.91a25.16,25.16,0,0,1-5.32-1.28,51.15,51.15,0,0,0-7.42-2.26c0,.09-.12,0-.2-.15l0,.05c-20.21-23.11-31.16-50.34-36.9-80.06-2.84-14.65-6.76-29.09-10.31-44.13l-8.26-.78-11.4-47.57c-8.21-1.32-14.37,2.22-20.63,5.16-4.36,2.05-8.19,3.74-12.81-.21-1.79-1.52-5.79-1.25-8.57-.7-14.65,2.91-29.32,5.81-43.79,9.46-8,2-15.63,5.53-23.45,8.31-1.08.39-2.28.45-4.1-1,5.19-2.57,10.21-5.54,15.59-7.63,22.75-8.82,46.17-14.56,70.71-15.94,8.78-.5,17.42-3.66,26.56-5.7,0-6,.14-10.89,0-15.79-.53-15.9,1-31.89-3.48-47.6-1.6-5.6-1.08-11.85-1.12-17.81,0-1.81,1.2-3.69,2.07-5.42,1.31-2.6,2.81-5.09,4.9-8.82-16.31.69-28.41,10.07-42.4,13.59s-27.27,9.72-41.22,13.84c22.32-12,47-18.61,69.5-29.77-1.28-5-2.41-9.39-3.79-14.75l-30.5-2.93c0-.44.08-.87.13-1.33,12.83-1,25.76-1.44,38.45-3.38a58,58,0,0,0,20.94-7.52,34.78,34.78,0,0,1,15.78-5c15.22-1.21,30.46-2.57,45.71-2.95,10.65-.26,18.47-6.84,29.42-10.06-8.18-5.48-16.27-1.77-23.47-4.11,5.71-4.08,12-4.66,18.61-4.16,10.29.77,20.69,1.73,30.19-3.89,1.11-.65,2.14-1.47,4.11-2.83l-10.42-1.7-.3-2c14.85-7.86,32.85-6.09,48.38-14.47-.1-1.26-.29-2.78-.33-4.3-.12-6.23,2.55-9.27,8.62-9.59a47.27,47.27,0,0,1,8,.18,46.85,46.85,0,0,0,15.31-.75,25.7,25.7,0,0,1,2.09-4.12,25.27,25.27,0,0,1,2.48-3.15c.8-.89,1.63-1.75,2.48-2.59l.6.17-.51-.19c1.21-1.53,2-3.57,3.31-4,7.49-2.56,15-5.62,22.73-6.78a44.12,44.12,0,0,0,20-8.17c17.23-12.46,34.69-24.57,52.16-36.69,8.69-6,17.61-11.69,27.62-18.31-2.07-3-4-5.82-6-8.57-12.77-17.13-29.49-30.56-43.55-46.46-3-3.4-4.8-8-8.08-11-4.81-4.46-10.5-8-15.74-12-10.84-8.27-21.71-16.5-32.42-24.93A186.77,186.77,0,0,0,1349.11,416c-15.93-8.21-31.14-17.89-47.36-25.46-16.51-7.68-33.87-13.57-50.86-20.24-6.18-2.42-12.6-4.37-18.51-7.33-16.19-8.09-33.6-12.35-50.73-17.73-18.19-5.7-36.68-9.14-55.34-12.47-12.37-2.2-24.27-6.92-36.62-9.32s-25-3.3-37.48-4.86c-1.65-.21-3.29-.49-4.93-.77-10.81-1.8-21.55-2.83-32.64-2-18.87,1.36-37-3.51-54.8-9.16-2.52-.79-5.07-1.52-7.64-2.17-.58-.14-1.28.24-2.2.44-.51,1.36-1.07,2.87-1.92,5.16-4.07-4.4-7.9-8.55-11.74-12.68-.57.32-1.13.64-1.7,1l3.38,9.51c-7.71-1-9.89-7-13.82-11.1l-4,3.28c-2.26-5.44-4.41-10.62-6.54-15.81-2.59-6.32-3.86-13.32-11.51-16.46-2.34-1-3.3-4.89-5.32-7.06-5.16-5.52-10.73-10.67-15.79-16.27a41.11,41.11,0,0,1-6-9.09c-2.2-4.41-3.47-8.76-9.8-9.79-3.18-.52-5.71-5-9.28-7.45,2.06,3.68,4.11,7.38,6.85,12.3-6.77-1.06-9.88-4.79-12.48-8.88-9.42-14.81-19.06-29.5-27.9-44.65-9-15.49-21.89-27.11-36.11-39-.94,2.75-1.57,4.62-2.44,7.19-4.21-5.84-7.74-11-11.59-16-2.22-2.83-4.53-5.6-9.18-4.24-1.59.47-4.26-1.06-5.8-2.42-7.2-6.33-14.2-12.88-21.23-19.43-4.64-4.31-9-9.08-16.58-7.41-1.74-6.38,1.55-14.58-8.06-16.79,1.21,3,2.5,6.11,4.33,10.6-9.2-1.46-12-8.8-17.46-12.52-5.7-3.9-11-8.43-16.37-12.64l-4.82,4.14c-5.23-4.25-7.93-12.7-15.68-8.09-13.16-10.77-26.34-19.13-42-23.37-7.66-2.08-15-5.29-22.46-8.09-6.49-2.43-11.89-4.59-19.41.17-9,5.71-20,8.54-30.37,11.89-7.59,2.46-15.53,3.48-23-2.44l-10.4,6.29C530.42,49,545.54,49.38,560.64,50l.21,2.11c-2.26.47-4.54,1.47-6.77,1.34-12.27-.68-24.55-1.38-36.77-2.58-6.46-.63-11.41-.92-13.78,7.21-1.72,5.89-8.86,6.85-12.81,1.8-5-6.41-10.7-6.51-18.22-6.75-16.54-.55-33.17-2.44-49-7.93a18.32,18.32,0,0,1-7.54-4.74c-8.26-9.41-19.87-12.26-31-17.3.29,1.51.2,2.32.55,2.67C397,37,410.85,44.94,424.89,52.43c2.44,1.3,6.17.19,9.12.19v12c-16.36-3.54-30.94-13.05-46.16-21.74,3.82,6.54,10.85,9.86,15.7,15.26,4.57,5.11,12.3,7.19,15.23,13.83l-1.35,2.28c-2.64-.7-5.71-.79-7.82-2.26a146.37,146.37,0,0,1-13.93-11.31c-3.59-3.2-6.1-8.12-12.36-5.85-.84.29-2.4-1-3.45-1.75C369.34,45.33,357.22,40.77,345.25,36c-2.92-1.16-6.27-1.23-10-1.91-.4,4.06-.71,7.17-1.13,11.32C332,44.33,329.9,44,329.54,43c-3.78-10.51-12.07-14.74-22.27-15.83-11.82-1.25-23.7-2.15-35.57-2.74a42,42,0,0,0-12.5,1.68c-3.39.87-5.81,1-9.1-1.14-2.07-1.36-6.18,0-9.28.69-5.63,1.2-10.49,4.26-17,.34-3.23-1.93-9.74,1.24-14.64,2.57-2.42.65-4.45,3.14-6.83,3.45-6.91.9-11.27,4.6-14.78,10.37A168.2,168.2,0,0,1,175.91,58.6a22,22,0,0,1-5.9,4.89c-5.46,3.37-8.63,7.71-7.12,14.44-5.86,7.41-14.53,4.38-22,5.75-4.22.78-8.64.4-13,.64-10.24.53-11.91-.93-12.69-11.3-12.54,18.24-24.67,50.46-33.77,90.52l6.39-8.62c-.75,4.65-1.28,7.9-2.11,13l16.75-2.54c2,7.24-5.66,5.48-7.86,8.1-2.15-1.07-4.63-3.32-6.08-2.78-2,.74-4.49,3.57-4.52,5.54-.17,11.63-.33,23.34,4.88,34.24,2.11,4.42,4.54,8.53,3.14,14.12-.69,2.73,1.44,6.27,2.62,9.32,1.25,3.25,2.89,6.36,4.37,9.53l-1.72,1.68-11.62-7.66c2.76,11.3,9.82,17.2,18.6,21.22,5.84,2.68,11.36,4.71,16.06,10a24.32,24.32,0,0,0,22.36,8c1.73-.29,3.5-2.61,4.54-4.42,1.65-2.82,2.7-6,5.45-9.14.13,2.25.65,4.56.31,6.73-1,6.44,1.81,10,7.76,11.86a52.41,52.41,0,0,1,8.18,3.66c4.45,2.29,7.33,5.26,6.3,11.05-.82,4.55,1.07,8.49,6.24,11.09,1.49-2.68,3.92-4.92,2.21-8.57-1.22-2.59-3.73-5-1-8.09.69,0,1.53-.27,1.94,0,10.12,7.51,20.18,15.1,30.27,22.65,5,3.76,9.91,7.78,15.24,11.06,7.27,4.51,14.91,8.11,20.88,14.82C256,345,262.71,349,268.65,353.65a3.6,3.6,0,0,0,1.71,1c14.85.73,22.66,12.75,33.13,20.51a51.48,51.48,0,0,1,20.15,30.66c2.46,10.23,8.41,19.61,10.9,29.83,5.1,21,9.72,42.1,13,63.42,2.14,14,1.55,28.45,2.11,42.7a21.61,21.61,0,0,1-.57,4c-3.24.16-4-1.69-4.38-3.69a3.16,3.16,0,0,1-1.82,1.94,4.27,4.27,0,0,1-1.13.14c-.72,0-1.43,0-2.15-.08l-.14,0c.34,4.86.61,9.74,1,14.58.95,11.58,1.89,23.16,2.63,34.76.29,4.62.17,9.27,0,13.91-.51,16.94-.7,33.9-1.79,50.81-1.13,17.54-3.2,35-4.79,52.54-.66,7.24-.8,14.53-1.82,21.72a32.63,32.63,0,0,1-3.93,12.21c-3.91,6.35-8.78,12.1,1.52,20H312.61l-1.86-4.88c-3.81-1.47-7.56-1.78-9.33-3.81C294,747.4,285.6,748,275.4,752c5.87,7.41,15.13,7.1,21.79,12.11-.62,1.62-1.27,3.36-2.06,5.45,2.84,1.73,5.64,3.41,9,5.43-2.7,3.13-5.45,1.76-7.69.17-8.92-6.33-17.79-12.73-26.46-19.37-3.76-2.9-7-6.4-12.91-3.48-1.94,9.43,6.44,15.57,9.73,25.42-11.93-5.92-14.38-15.53-16.42-26.81-6.05,10.29-16.43,3.76-25.43,8.8l13.27,1.94c-8.36,2.27-14.87,3.75-21.2,5.81-12.56,4.11-22.94,11-30.11,22.66-1.83,3-6.06,5.33-9.61,6.14l-.88.17c-.43.09-.86.14-1.3.2l-.18,0c-.45.05-.91.08-1.37.12h-.17c-2.87.16-5.83,0-8.75-.11a1.57,1.57,0,0,1,.16.33,1.19,1.19,0,0,1,0,.85.2.2,0,0,1,0,.08l-.07.06-.36.29-.1.07-.12,0-.71.11-.24,0H163a3.59,3.59,0,0,1-.63,2.45,1.7,1.7,0,0,1-.1.14,4,4,0,0,1-.62.62,6.12,6.12,0,0,1-2.11,1c-6.3,1.84-12.66,3.5-19,5.28-2.19.61-4.34,1.36-6.72,2.12.37,2.8.68,5.18,1,7.89-1.69,0-3,.39-3.48-.05-4.75-4.17-9.18-3.14-14.63-.78-5.92,2.57-12.6,3.37-19,4.84-2.23.51-4.55.61-6.78,1.09-5.79,1.24-11.59,2.48-17.33,3.94-2.46.62-5.45,1.15-7,2.83-3.5,3.73-7,3.85-11.68,2.84a42.66,42.66,0,0,0-6.12-.78,9.51,9.51,0,0,1-.28,1.68c-.28,1.14-.62,2.27-.95,3.4l-.21.71A8,8,0,0,1,49,839.54c1.86,3.07,2.89,6.62,4.41,9.91.83,1.79,1.69,4.65,3,5C66.52,856.85,66,866.74,70,873.31c3.79,6.21,6.51,13.07,10.27,19.31,1.29,2.14,4.28,3.27,7.6,5.65.07,1.07.22,3.63.39,6.33.75.56,1.59,1.7,2.28,1.61,4-.48,6.24,1.81,8.25,4.58,7.87,10.83,15.7,21.7,24,33.19l6.34-5.55c-1.46-2.62-2.71-4.89-4-7.3,1-.12,1.77-.44,2-.22,1.08,1.26,1.75,3.44,3,3.86,11.66,3.84,17.66,14.42,26.51,21.56,6.56,5.29,14.54,8.8,21.4,13.78a24.26,24.26,0,0,0,4,2.18l2.11,1c.55.27,1.08.56,1.61.85a12.35,12.35,0,0,1,2.63,1.92,8.32,8.32,0,0,1,2.52,5.87l.15.07a.86.86,0,0,0,.13.14c.86-.25,1.74-.52,2.72-.83l2.08-.67c-.57-3.13-1.06-5.89-1.79-9.92,2.79,1.23,4.66,1.7,6.1,2.76,4.05,3,7.37,4,10.81-1.19,1-1.48,4.63-2,6.83-1.65,2,.33,3.7,2.46,5.71,3.93l9-3.83c1.27-4.31,2.47-8.36,3.67-12.41.14,15.43,10.06,25.33,19.59,34.93s17.77,20.42,29.64,27.43c1.19.7,1.59,2.73,3.25,5.81-15.09-6.49-23.43-20.35-38.33-25.1-.79,2.78-1.38,4.86-2,6.92-4-.34-5.33-1-7.93-3.89-4.78,2-6.17,5.49-4.64,10.4l8.54-4.4c-1.23,5.2-1.71,8.68-2.89,11.92-2.81,7.72-6.06,15.29-8.91,23-.79,2.14-1.56,4.77-1,6.83,2.63,10.1-1.94,18.82-5,27.72a468.66,468.66,0,0,0-18.6,70.52c-1.2,6.65-4.28,12.94-6.11,19.5-2.21,7.94-4.32,15.94-5.94,24-5.44,27.16-10.86,54.31-15.85,81.55l-.45,2.42c-1.54,8.44-1.16,17.21-2.34,25.74-1,7.44-1.27,15.22-5.37,21.12,1.79,3.42,4.59,6.42,4.57,9.39a6,6,0,0,1-.28,1.75c-.74,2.54-2.87,5.18-4.49,8.41,6,9.24,2.57,18.43-.38,27.82l.1.05a13.64,13.64,0,0,1,5.08,6.6,28.12,28.12,0,0,1,2,9.14c.54-1.89,1.08-3.78,1.58-5.69-.27,5.8-.34,11.62-.86,17.41-.27,3-.65,6-1.07,9l.25-.05,1.25-.15a.81.81,0,0,1,.38,0,1,1,0,0,1,.28.16l1.33,1a4.11,4.11,0,0,1,.45.38,3.41,3.41,0,0,1,.43.57,24.45,24.45,0,0,1,2.3,4.64c1.78.52,4,.76,4.09,1.32a18.68,18.68,0,0,1,.05,6.5,8,8,0,0,1,1.32,2.47,13.34,13.34,0,0,1,.62,4,4.92,4.92,0,0,1-.17,1.62,4.86,4.86,0,0,1-.32.74c.45,1.34,1,2.79,1.78,5.24,7.34-10.58,1.32-23.66,7.82-33.24l2.19.45q-4.23,22.59-8.44,45.14a50.81,50.81,0,0,1,1.07,8.31,15.89,15.89,0,0,1-.07,2.29,21.27,21.27,0,0,1-.65,3l-.81,3c-.05.2-.11.39-.16.58l.62,0c-.21,2.3-.43,4.59-.64,6.88s-.39,4.31-.57,6.47l.06.44a18,18,0,0,1,3.37,1.29l0,0c.21.11.41.22.6.34a8.73,8.73,0,0,1,1.09.8,8,8,0,0,1,.92,1,6.45,6.45,0,0,1,.74,1.19,9.49,9.49,0,0,1,.89,3.17c.62,5.14,2.29,10.16,2.18,15.77l-3.77-6.16c-9.81,9.2-7.51,21.23-7.57,31.8-.13,19.29,2.13,38.59,3,57.9.15,3.44-1.62,7-2.72,11.28,4.32,3.56,5.56,8.9,5.6,15.2.05,7.26,1.56,14.51,2.39,21.78.31,2.7.87,5.83-1.82,7.15-.13,1.33-.34,2.65-.57,4a11.88,11.88,0,0,1-.56,2.3,2.61,2.61,0,0,1-.79,1.21,2.49,2.49,0,0,1-1.33.42c-.72,4.88-4.21,7.32-9.29,8.91,5.05,9.52,5.53,10.43,1.34,14.25a1.15,1.15,0,0,1,.26.19,3,3,0,0,1,.7,2.31,14,14,0,0,1-.16,1.94c-.1.62-.24,1.23-.4,1.84,2.12,5.79,5.28,11.51,1.33,17.39a40.89,40.89,0,0,1,.6,7.89,13.43,13.43,0,0,1-.18,2.1,8.13,8.13,0,0,1-2.37,4.37c1.16,2,2.31,4,3.62,6.2-.83,2-1.74,4.14-2.68,6.36-.31.72-.61,1.46-.92,2.19h0c1.15.68,3,1.22,4,1.9a1.19,1.19,0,0,1,.56.73c1.18,7.79,2,15.64,2.52,23.49.09,1.45-1.35,3-3.84,4.37.16.77.35,1.55.46,2.33.07.59.09,1.19.11,1.79a10.79,10.79,0,0,1-.26,3.16,5.86,5.86,0,0,1-1.19,2.21c4.89,6.52,8.62,31.08,6.11,38a.65.65,0,0,1,.1.15,20.28,20.28,0,0,1,.76,2.1c.07.22.13.45.18.67.09.38.15.77.21,1.16l.08.51c.06.4.13.8.16,1.2,0,.12,0,.25,0,.38a2.76,2.76,0,0,0,.18.64c4.67,8.85,8.09,17.73,9.46,27.62,2.67,19.35,6.45,38.54,9.78,57.8.76,4.39,2.26,7.9,6.93,10,2.95,1.35,5,4.67,8.87,8.5l-9.26,1c1.74,8.23,1.27,16.57,5.28,24.6,3,6.06,3.91,13.22,5.49,20,1.14,4.85,1.64,9.84,2.82,14.68.72,3,2.2,5.75,3.57,9.2l-2.74,5.1.05.07,0,0,0,.27c5.12,7.53,2.94,15.68,1.88,23.79l0,.16c0,.09.06.19.1.28,1.93,1.48,3.88,3,6.28,4.78v-7.6l2-.54c1.91,9,9.67,15.14,10.59,24.68a10,10,0,0,0,2.09,5.48c5.78,6.32,7.07,14.45,9.94,22,2.55,6.72,6.93,12.75,10.45,19.11,5.28,9.56,10.15,19.36,15.83,28.66,8.63,14.13,16.81,28.74,27.19,41.5,5.18,6.38,9.72,14.23,18.19,18.14,6.27,2.89,4.95,10.37,6.29,16,.63,2.63-.16,5.59-.44,8.45h.06a.55.55,0,0,1,.22,0,.8.8,0,0,1,.24.13c.2.13.39.28.58.43l.31.24.7.55a.9.9,0,0,1,.16.18l0-.05c.05.09.1.18.16.27h0c.41.08.85.09,1.27.17A11.59,11.59,0,0,1,353.88,2198.37Zm1427.56-240.55c4.3-.27,8,3.63,7.77,8.24a7.89,7.89,0,0,1-15.72.12C1773.29,1961.94,1776.94,1958.1,1781.44,1957.82ZM1560.31,2187.1c4.37-.28,8.08,2.63,8.31,6.53.23,3.69-3.25,7.37-7.36,7.82a6.45,6.45,0,0,1-7.37-6.13C1553.47,2190.86,1556.2,2187.37,1560.31,2187.1Zm-220.7,232.2c3.48,0,6.76,3.41,6.87,7,.12,3.82-3.39,7.42-7.45,7.64s-7-2.83-7.06-7.56C1332,2422.29,1335.23,2419.24,1339.61,2419.3Zm-63-1285.14c3.92-.31,5.26,2.2,5,10.38-4.37-.56-9,.93-9.42-5C1271.92,1136.57,1273.39,1134.42,1276.6,1134.16ZM1115.67,2655.82c3.9.21,7,3.88,6.95,8.2-.07,4.15-3.23,7-7.86,7.06s-7.44-2.59-7.38-7.24C1107.43,2659.54,1111.51,2655.59,1115.67,2655.82ZM612.55,229.69l-2.82-5.2-.63-.47h0c0-.15,0-.31,0-.45l-5.43-5.22c2.46-.09,3.89.61,4.66,1.81a4.57,4.57,0,0,1,.54,1.26c0,.17.07.32.1.48a8.92,8.92,0,0,1,.14,1.68l.22.2.37.68q2.4,1.83,4.82,3.63Zm98.62,128.24,1.14,4.32-1.71.4-.93-4.35Zm-2.76-6.26c-.66-.48-1.72-.85-1.86-1.46s.52-1.54,1.12-3A13.27,13.27,0,0,1,709,350C709.07,350.5,708.62,351.1,708.41,351.67ZM497,106.45c4.67-8.14,6.55-17.86,10.12-26.7.84-2.1,3.44-4.8,5.39-4.92a230.3,230.3,0,0,1,24.79-.18c7.27.29,14.57.85,21.08,4.89A10.07,10.07,0,0,0,564,81.07c12.07-1,21.15,6.42,31.16,11.08,2.42,1.14,4,4.16,4.9,7.73l-9.82-5.8-1.53,1.67c2.84,2.76,5.88,5.34,8.44,8.33,2.79,3.26,5.14,6.9,8.23,11.11l10.32-3.44c-2.29-3.35-4.88-5.79-5.84-8.77-4.4-13.54-4.25-13.57-16-19-3.31-1.55-6.4-3.73-9.84-4.84-7.9-2.52-15.58-7.72-24.25-1.8-3-6.21.58-9,4.2-10,4-1,9.15-1.54,12.67.11a308.92,308.92,0,0,1,33,17.93c8.62,5.45,14,13.57,16.49,23.94,2.28,9.26,6.38,18.08,9.9,27,.36.91,2.27,1.22,4,2.08,3.72,8,7.79,17.24,12.37,26.25,1.55,3.06,4.44,5.42,6.59,8.19,1.37,1.77,2.93,3.57,3.66,5.62,2.46,6.87,4.84,13.78,6.79,20.82,2.74,9.9,3.23,10.4,13.74,9.43.93-.09,1.86,0,3.38,1.68l-10.32,3.91c.93,10.34-1.18,21.89,9.25,28.1,0,4.75-.94,8.93.16,12.47,4.74,15.21,10.1,30.24,15.17,45.35,2.3,6.85,4.44,13.73,6.83,21.14h-5.18c1.52,6.7,3,13.26,4.51,19.84-8.78-17.79-11-38.63-27.92-54.58.86,5.7,1.42,9.43,2,13.13-8.23-22.08-12.14-46.13-32-63.92-2.26,9.46,3.92,14.49,6.72,20.67,2.94,6.5,5.84,13,7,20.32-4.89-9.26-10.62-18.2-14.45-27.88-5.83-14.71-15.92-26-26.92-36.57-6.07-5.82-10.87-13-20.19-15.63-4.94-1.38-8.48-7.65-12.76-11.59a28.62,28.62,0,0,0-7.56-5.08c7.91,9.32,13,20.18,19.73,30.07l-2.05,1.4c-2.48-3.24-5.39-6.26-7.36-9.8-5.29-9.43-12.76-16.89-20.68-24-.25-.21-.65-.38-.75-.65-3.65-10.25-12-9.28-20.46-9.06-7.27.17-14.59-.85-21.87-1.44-9.35-.76-16-6-21.22-13.3-1.75-2.44-3.28-5-5.09-7.39-4.23-5.51-5.55-13.5-16.38-15.58C497.62,125,492.65,114,497,106.45Zm-63.66,2154,.53.16-.25.24c-.1-.13-.19-.26-.28-.4-7.5-2.31-8.34-3.31-10.54-11.58C428.9,2250.84,430.44,2256.29,433.34,2260.41ZM375.16,2193c-2,8.08,1.42,13.06,8.73,17.53,6.05,3.7,10.32,10.24,15.54,15.37,3.31,3.26,7,6.15,10.34,9.36,2.25,2.14,4.26,4.53,6.38,6.81l-2,1.84c-6-5.67-11.76-11.61-18-16.93a91.62,91.62,0,0,0-14.63-10.08c-4.32-2.41-7.71-4.66-8.14-10.26-.2-2.69-2.63-5.14-3.72-7.84-1.3-3.22-2.24-6.58-4-11.93Zm-24-43.31c5.48,11,11.7,21.72,12.86,34.32C360,2172.47,350.58,2163,351.21,2149.73ZM107.3,162.89,106,160.2c3.31-4.13,7.49-6.07,15.1-4.35Zm45.13,14c-.31-.77-.62-1.53-.94-2.3,2-1,4-2.1,7.16-3.75C157.42,175.73,155.65,177.37,152.43,176.9Zm34.81-29.06a9.75,9.75,0,0,1,1.57-.72c.86,1.21,1.59,2.51,2.35,3.79l-1.65.84Zm4,59.34c-.7-4.25-.7-4.25,2.18-7.88C198.22,204.41,198.22,204.41,191.26,207.18Zm28.37-31.42c-.62-.55-1.62-1-1.75-1.68s.71-1.38,1.38-2.5c.83,1,1.76,1.6,1.76,2.23S220.13,175.11,219.63,175.76Zm18.17-50.37c-1.41,4.57-3.8,4.49-8.54.33,3.74-1.32,5.69-2,7.6-2.67C237.37,124.25,238,124.93,237.8,125.39Zm9.54-49.87a7.49,7.49,0,0,1-8.18-7A7.76,7.76,0,0,1,246.89,60c3.91,0,7.58,3.55,7.81,7.61A7.75,7.75,0,0,1,247.34,75.52ZM66.21,840.58c-.5-1.56-1-3.12-1.51-4.68l1.76-.72,2.17,4.39Zm114.9,533.06-2.14-.43c.31-2.61.63-5.22.94-7.84l3.49.71Q182.25,1369.86,181.11,1373.64Zm6.22-59.52c.9-4.82,1.5-8.08,2.27-12.21C196.16,1310,196.11,1310.39,187.33,1314.12Zm126.37-274.4-11.59-10.23C309.37,1029.6,309.89,1030.08,313.7,1039.72Zm-25.6-19.19h11.64c-.17,1.88-.36,4-.72,7.85Zm-8.6,41,18.94-28.48c3.57,31.28-12.34,55.81-24.58,81.5C275.67,1097.31,285.36,1080.94,279.5,1061.55Zm-16.65-15c.65,1.89.15,3.93-.48,6h0s0,.08,0,.12c.26,2.22.55,4.41.84,6.59.1.77.21,1.53.31,2.29l-1.95.09.78-8.76,0-.22,0,0v0a.29.29,0,0,0,0-.09q-.86-4.46-1.72-8.89a7.65,7.65,0,0,1,.93.84,6.55,6.55,0,0,1,.49.58A5.1,5.1,0,0,1,262.85,1046.51Zm-2-25.19-6.72-12.41C263,1013.86,263,1013.86,260.86,1021.32Zm-23,87.7,1.4,1.13-2.4,5.86-1-.34Zm5.34,12.63c2.52,2.85,1.7,5.35-.56,7.85-2,2.21-3.14,4.46,1.08,6.72,7.34-10.69,7.6-24.06,12.77-36.13a36.69,36.69,0,0,0-3.25,2.24c-1,.85-1.82,1.89-3.2,3.34a12.2,12.2,0,0,1-.26-2.83c1-5.13,2.71-10.19,3.08-15.36.51-7.14,5.52-11.59,9.63-17.26.39,2.43.86,4.85,1.12,7.29.17,1.59-.67,4.07.11,4.7,5.92,4.74,1.68,10.09.36,14.42A287.94,287.94,0,0,1,251.84,1129c-3.91,8.78-9,17-13.86,26.08C231.86,1147.13,234.6,1132.86,243.23,1121.65Zm-.39,76.9-2.18,1.79a8.34,8.34,0,0,1-.7-2.23c0-.47.59-1,.92-1.44Zm-39.28,494.21a7.35,7.35,0,0,1-1.36-1.92c-.13-.42.43-1,.69-1.59l2.33,1.17C204.49,1691.45,204,1692.11,203.56,1692.76Zm6.58-293c-.28-5-.49-8.82-.71-12.66l-6.09-1.06c1.8-3.28,3.41-6.19,5-9.09l1.79.39ZM212,1478.2l2.61-.47q.74,11.57,1.48,23.11C210.35,1493.81,212.84,1485.8,212,1478.2Zm-1.41-12.06v-17c6.82,1.85-.4,6.28,2.2,8.65C216.39,1461.12,213.28,1463.52,210.58,1466.14Zm-1.45-186.05c-3.56-9.78-2.87-11.78,4.81-14.25C212.32,1270.65,211,1274.52,209.13,1280.09Zm-3.24-52.3v-12C207.6,1219.16,209.83,1222.55,205.89,1227.79Zm8.4,426.85c.49,7.27.88,13,1.4,20.79C208.9,1666.51,208.78,1664,214.29,1654.64Zm3.28-115.44c.45,3.26.89,6.51,1.33,9.77l-1.38.23c-.59-3.25-1.17-6.49-1.76-9.73Zm3.87,223.26c-3.62-8.36-5.94-16.72-2.61-25.56C223.16,1745.07,225.14,1753.51,221.44,1762.46Zm5.73,47.51c-1.39-10.77-2.78-21.55-4.37-33.94,7.11,6.27,7.79,9.11,6.07,15.25-.76,2.7-.57,5.75-.37,8.61.23,3.2,1,6.37,1.48,9.55Zm1.53-598.44c-.47,18.64-8.27,34.74-14.93,51.2l-2.05-.24c-.24-1.67-1.05-3.51-.62-5,2-6.89,4.21-13.75,6.7-20.49a88.14,88.14,0,0,0,3-49.25c-3,1.34-6,2.65-8.92,4-.06.09-.1.18-.15.27l0,.14c.59.66,1.37,1.28,1.53,2,.88,4.12-3.95,18-7.32,21.49l0,.06h0v0h0l0,0h0q1.44-5.91,2.9-11.81t2.84-11.77c-.06-.06-.11-.13-.16-.19l.21-.09c1.44-2.62,4-4.52,5.79-7l.26-.39a9,9,0,0,0,.47-.78h0a9.12,9.12,0,0,0,.41-.83,8.75,8.75,0,0,0,.67-3.9c-.06-1.16,3.13-2.83,5.09-3.62,1.69-.68,3.75-.45,5.46-.6,3.66-14.93,3.66-14.93,9-15.56-4.62,16.48-10.21,32.72-3.89,50.08Zm8.66,751.21-.6-5,1.54-.2.54,5.06Zm5-19.36c-6.74-5.94-6.85-13.94-10.36-20.07l6.63-6.14,5.29,5.58C236.83,1928.67,243.26,1935.57,242.4,1943.38Zm.2-39.85-7.6-5c.47-2.75.84-4.92,1.59-9.35l7.38,13.21Zm-1.3-76.79c-.37-3.55.13-7.19.29-10.79a1,1,0,0,1,.57-.71c.26,0,.59.24,1.19.52,1,5.8,2,11.79,3.22,18.58C241.75,1833.14,241.59,1829.58,241.3,1826.74ZM248,1839.6c4.18,15.35,8.36,30.7,12.62,46.37l-5.39,5v0l.13.46c5.69,3.33,3.12,9.78,4.22,14.8q-2.12-7.4-4.22-14.8l-.42-.23.07-.06.2-.19a47.45,47.45,0,0,1-3.78-9.17,62,62,0,0,1-1.53-6.29q-.3-1.59-.54-3.18c-1.6-10.65-1.33-21.61-3.57-32.15Zm5.27,124.09q-3.54-5.39-7.09-10.78l1.23-.83q3.48,5.43,7,10.84Zm9.87,45.68-8.34-18.52,2.5-1.12,8.28,18.65Zm4.4-42c-5.07-11.75-8.21-24.33-12.09-36.58-.22-.7.53-1.7,1.19-3.59,3.56,3.7,8.82,4.74,8.36,11.12-.12,1.59,2,3.29,2.94,5a13.63,13.63,0,0,1,1.37,3.7c.6,3-6.42,2.83-3.19,6.67,1.66,2,4.62,2.83,7,4.24a1.09,1.09,0,0,1,.43.87c-2.31,10.32,7,17.29,7.64,27.11.47,7.64,4.18,15,6.18,22.63,1.25,4.74,2,9.61,3.11,15.21l5.53-1.17a5.74,5.74,0,0,0,.36,2.09,6.46,6.46,0,0,0,.41.89,22.91,22.91,0,0,0,4.15,4.76,19.51,19.51,0,0,1,1.45,1.58,10.34,10.34,0,0,1,.64.84,8.66,8.66,0,0,1,.68,1.17c.09.2.18.41.25.62a6.07,6.07,0,0,1,.28,3.09c0,.18-.06.36-.11.55a9,9,0,0,1-.62,1.75h0c-.12.26-.25.52-.41.8l.25-.09,0,0c-.14.2-.28.39-.41.59,1.13.48,2.77.67,3.26,1.53,3.62,6.32,7.12,12.7,10.39,19.2,2.23,4.43,4.29,8.93.72,13.94-.88,1.23-.13,3.62-.13,6.14-6.12-1.42-5.12-6.89-6.91-10.23-2.46-4.57-3.81-9.71-5.91-14.49-2.34-5.3-5.18-10.47-1.42-16.09l-.09,0h0q.15-.24.27-.48c-5.67,2.09-6.58-3.54-7.88-6.21-2.26-4.63-4.82-7.62-11.41-7-1.27-7.2-2-14.08-3.75-20.66C276.35,1993.5,273,1980.15,267.5,1967.34Zm17.38,83.51q-4.14-8.07-8.29-16.15l1.78-1,8.4,15.71Zm3.37-14.47,2.35-1.08c2.25,5.15,4.54,10.3,6.75,15.47,2.33,5.43,4.59,10.9,6.87,16.35-.75.42-1.5.84-2.26,1.25Zm16.83,42.7-2-3.92,1.31-.69c.68,1.3,1.35,2.6,2,3.9Zm20.68,29.08-2.48-.33-8.35-1.08L306.48,2085c13.13,8.91,14.79,11.22,19.28,23.19Zm8.82,26.48c-4.54-2-4.66-5.13-3.89-8.6l-.06,0,0,0h0l0-.27-4.71-9.27.7.26a8.8,8.8,0,0,1,1.19.61,5.93,5.93,0,0,1,2.08,2.09,5.06,5.06,0,0,1,.36.74,7.26,7.26,0,0,1,.33,1.06c0,.17.07.35.09.52a14.59,14.59,0,0,1,0,4l.05.09,0,.15a5.45,5.45,0,0,1,3.37,3c.06.15.11.3.17.46a7.24,7.24,0,0,1,.24,1A17.52,17.52,0,0,1,334.58,2134.64ZM324.7,1058.38c-.72-4.49-1.39-8.7-2.11-13.15,7.05,5.42,15.31,8.68,24.87,8.31Z"
                transform="translate(-30.11 -6.37)"
            />
            <path
                d="M1327.45,654.92c-5.8-4.3-11.15-3.57-15.82,2.41l10.07-1.41c.19.7.39,1.41.58,2.12q-37.21,15.3-74.43,30.6c-25.31,10.38-50.63,20.72-75.18,30.77-.88,11.88-7.47,20.92-6,32,1.37,10.12.51,20.52,1.37,30.74.88,10.38-1.12,21.29,5.12,32,8.19-3.6,16.09-11.52,25.9-3.62-7.23,4.69-16.95,3.14-22,10.9,10,10.38,39.49,13.49,55.31,4.87L1211,823.86l.18-2.49c3.15-.21,6.44-1.1,9.44-.52,10.45,2,19.57-1.63,28.69-5.76,1.93-.87,3.93-1.55,5.9-2.33l.61,1.22-10.18,8.14c4.28.88,6.89,2.09,9.3,1.78,7.51-.93,14.92-2.55,22.41-3.7,18.25-2.79,36.2-7.61,54.86-7.79,4.57,0,9.16-2.23,13.69-2,15.57.68,29-5.83,42.87-11.39,6.85-2.75,12.47-8.59,21-7.84,2.54.22,5.47-3.31,8.1-5.29,2.11-1.58,3.91-3.59,6.07-5.06,12.32-8.47,24.78-16.74,37-25.31,5-3.49,9.6-7.54,14.38-11.33l-.66-1.93-43.27-5.64,2.46-6.73c-8.81-5.5-17.75-11.13-26.74-16.67-5.57-3.44-10.76-8.23-17.38-.82-2.4,2.69-7.17,1.94-9.72-1.51a6.72,6.72,0,0,1,.6-9.13,47.34,47.34,0,0,1,3.89-3.39c-5.37-5-10.08-9.58-15.09-13.87-10-8.59-19.6-17.82-31.92-23.36A56.43,56.43,0,0,1,1327.45,654.92Z"
                transform="translate(-30.11 -6.37)"
            />
        </g>
    </svg>